<svg
  height="1080"
  version="1.1"
  viewBox="0 0 1920 1080"
  width="1920"
  xmlns="http://www.w3.org/2000/svg"
>
  <style>
    path {
      fill: none;
      stroke-width: 1px;
      stroke: #000;
    }
    text {
      font-family: Monaco;
      font-size: 10px;
      text-align: center;
      text-anchor: middle;
    }
  </style>
  <g>
    <path d="m360 380h20v320h-20z" />
    <path d="m740 380h20v320h-20z" />
    <path d="m360 380v-10h400v10z" />
    <path d="m360 710v-10h400v10z" />
    <path d="m800 380h20v320h-20z" />
    <path d="m1060 380h20v320h-20z" />
    <path d="m800 380v-10h280v10z" />
    <path d="m800 710v-10h280v10z" />
    <path d="m1280 380h40v320h-40z" />
    <path d="m1560 380h20v320h-20z" />
    <path d="m1280 380v-10h300v10z" />
    <path d="m1280 710v-10h300v10z" />
    <path d="m1120 380h20v320h-20z" />
    <path d="m1220 380h20v320h-20z" />
    <path d="m1120 380v-10h120v10z" />
    <path d="m1120 710v-10h120v10z" />
  </g>
  <g>
    <path d="m380 700v-40h40v40z" />
    <text x="399" y="683">2583</text>
    <path d="m420 700v-40h40v40z" />
    <text x="439" y="683">2584</text>
    <path d="m460 700v-40h40v40z" />
    <text x="479" y="683">2585</text>
    <path d="m500 700v-40h40v40z" />
    <text x="519" y="683">2586</text>
    <path d="m540 700v-40h40v40z" />
    <text x="559" y="683">2587</text>
    <path d="m580 700v-40h40v40z" />
    <text x="599" y="683">2588</text>
    <path d="m620 700v-40h40v40z" />
    <text x="639" y="683">2589</text>
    <path d="m660 700v-40h40v40z" />
    <text x="679" y="683">2590</text>
    <path d="m700 700v-40h40v40z" />
    <text x="719" y="683">2591</text>
    <path d="m380 660v-40h40v40z" />
    <text x="399" y="643">2592</text>
    <path d="m420 660v-40h40v40z" />
    <text x="439" y="643">2593</text>
    <path d="m460 660v-40h40v40z" />
    <text x="479" y="643">2594</text>
    <path d="m500 660v-40h40v40z" />
    <text x="519" y="643">2595</text>
    <path d="m540 660v-40h40v40z" />
    <text x="559" y="643">2596</text>
    <path d="m580 660v-40h40v40z" />
    <text x="599" y="643">2597</text>
    <path d="m620 660v-40h40v40z" />
    <text x="639" y="643">2598</text>
    <path d="m660 660v-40h40v40z" />
    <text x="679" y="643">2599</text>
    <path d="m700 660v-40h40v40z" />
    <text x="719" y="643">2600</text>
    <path d="m380 620v-40h40v40z" />
    <text x="399" y="603">2601</text>
    <path d="m420 620v-40h40v40z" />
    <text x="439" y="603">2602</text>
    <path d="m460 620v-40h40v40z" />
    <text x="479" y="603">2603</text>
    <path d="m500 620v-40h40v40z" />
    <text x="519" y="603">2604</text>
    <path d="m540 620v-40h40v40z" />
    <text x="559" y="603">2605</text>
    <path d="m580 620v-40h40v40z" />
    <text x="599" y="603">2606</text>
    <path d="m620 620v-40h40v40z" />
    <text x="639" y="603">2607</text>
    <path d="m660 620v-40h40v40z" />
    <text x="679" y="603">2608</text>
    <path d="m700 620v-40h40v40z" />
    <text x="719" y="603">2609</text>
    <path d="m380 580v-40h40v40z" />
    <text x="399" y="563">2610</text>
    <path d="m420 580v-40h40v40z" />
    <text x="439" y="563">2611</text>
    <path d="m460 580v-40h40v40z" />
    <text x="479" y="563">2612</text>
    <path d="m500 580v-40h40v40z" />
    <text x="519" y="563">2613</text>
    <path d="m540 580v-40h40v40z" />
    <text x="559" y="563">2614</text>
    <path d="m580 580v-40h40v40z" />
    <text x="599" y="563">2615</text>
    <path d="m620 580v-40h40v40z" />
    <text x="639" y="563">2616</text>
    <path d="m660 580v-40h40v40z" />
    <text x="679" y="563">2617</text>
    <path d="m700 580v-40h40v40z" />
    <text x="719" y="563">2618</text>
    <path d="m380 540v-40h40v40z" />
    <text x="399" y="523">2619</text>
    <path d="m420 540v-40h40v40z" />
    <text x="439" y="523">2620</text>
    <path d="m460 540v-40h40v40z" />
    <text x="479" y="523">2621</text>
    <path d="m500 540v-40h40v40z" />
    <text x="519" y="523">2622</text>
    <path d="m540 540v-40h40v40z" />
    <text x="559" y="523">2623</text>
    <path d="m580 540v-40h40v40z" />
    <text x="599" y="523">2624</text>
    <path d="m620 540v-40h40v40z" />
    <text x="639" y="523">2625</text>
    <path d="m660 540v-40h40v40z" />
    <text x="679" y="523">2626</text>
    <path d="m700 540v-40h40v40z" />
    <text x="719" y="523">2627</text>
    <path d="m380 500v-40h40v40z" />
    <text x="399" y="483">2628</text>
    <path d="m420 500v-40h40v40z" />
    <text x="439" y="483">2629</text>
    <path d="m460 500v-40h40v40z" />
    <text x="479" y="483">2630</text>
    <path d="m500 500v-40h40v40z" />
    <text x="519" y="483">2631</text>
    <path d="m540 500v-40h40v40z" />
    <text x="559" y="483">2632</text>
    <path d="m580 500v-40h40v40z" />
    <text x="599" y="483">2633</text>
    <path d="m620 500v-40h40v40z" />
    <text x="639" y="483">2634</text>
    <path d="m660 500v-40h40v40z" />
    <text x="679" y="483">2635</text>
    <path d="m700 500v-40h40v40z" />
    <text x="719" y="483">2636</text>
    <path d="m380 460v-40h40v40z" />
    <text x="399" y="443">2637</text>
    <path d="m420 460v-40h40v40z" />
    <text x="439" y="443">2638</text>
    <path d="m460 460v-40h40v40z" />
    <text x="479" y="443">2639</text>
    <path d="m500 460v-40h40v40z" />
    <text x="519" y="443">2640</text>
    <path d="m540 460v-40h40v40z" />
    <text x="559" y="443">2641</text>
    <path d="m580 460v-40h40v40z" />
    <text x="599" y="443">2642</text>
    <path d="m620 460v-40h40v40z" />
    <text x="639" y="443">2643</text>
    <path d="m660 460v-40h40v40z" />
    <text x="679" y="443">2644</text>
    <path d="m700 460v-40h40v40z" />
    <text x="719" y="443">2645</text>
    <path d="m380 420v-40h40v40z" />
    <text x="399" y="403">2646</text>
    <path d="m420 420v-40h40v40z" />
    <text x="439" y="403">2647</text>
    <path d="m460 420v-40h40v40z" />
    <text x="479" y="403">2648</text>
    <path d="m500 420v-40h40v40z" />
    <text x="519" y="403">2649</text>
    <path d="m540 420v-40h40v40z" />
    <text x="559" y="403">2650</text>
    <path d="m580 420v-40h40v40z" />
    <text x="599" y="403">2651</text>
    <path d="m620 420v-40h40v40z" />
    <text x="639" y="403">2652</text>
    <path d="m660 420v-40h40v40z" />
    <text x="679" y="403">2653</text>
    <path d="m700 420v-40h40v40z" />
    <text x="719" y="403">2654</text>
    <path d="m820 700v-40h40v40z" />
    <text x="839" y="683">2655</text>
    <path d="m860 700v-40h40v40z" />
    <text x="879" y="683">2656</text>
    <path d="m900 700v-40h40v40z" />
    <text x="919" y="683">2657</text>
    <path d="m940 700v-40h40v40z" />
    <text x="959" y="683">2658</text>
    <path d="m980 700v-40h40v40z" />
    <text x="999" y="683">2659</text>
    <path d="m1020 700v-40h40v40z" />
    <text x="1039" y="683">2660</text>
    <path d="m820 660v-40h40v40z" />
    <text x="839" y="643">2661</text>
    <path d="m860 660v-40h40v40z" />
    <text x="879" y="643">2662</text>
    <path d="m900 660v-40h40v40z" />
    <text x="919" y="643">2663</text>
    <path d="m940 660v-40h40v40z" />
    <text x="959" y="643">2664</text>
    <path d="m980 660v-40h40v40z" />
    <text x="999" y="643">2665</text>
    <path d="m1020 660v-40h40v40z" />
    <text x="1039" y="643">2666</text>
    <path d="m820 620v-40h40v40z" />
    <text x="839" y="603">2667</text>
    <path d="m860 620v-40h40v40z" />
    <text x="879" y="603">2668</text>
    <path d="m900 620v-40h40v40z" />
    <text x="919" y="603">2669</text>
    <path d="m940 620v-40h40v40z" />
    <text x="959" y="603">2670</text>
    <path d="m980 620v-40h40v40z" />
    <text x="999" y="603">2671</text>
    <path d="m1020 620v-40h40v40z" />
    <text x="1039" y="603">2672</text>
    <path d="m820 580v-40h40v40z" />
    <text x="839" y="563">2673</text>
    <path d="m860 580v-40h40v40z" />
    <text x="879" y="563">2674</text>
    <path d="m900 580v-40h40v40z" />
    <text x="919" y="563">2675</text>
    <path d="m940 580v-40h40v40z" />
    <text x="959" y="563">2676</text>
    <path d="m980 580v-40h40v40z" />
    <text x="999" y="563">2677</text>
    <path d="m1020 580v-40h40v40z" />
    <text x="1039" y="563">2678</text>
    <path d="m820 540v-40h40v40z" />
    <text x="839" y="523">2679</text>
    <path d="m860 540v-40h40v40z" />
    <text x="879" y="523">2680</text>
    <path d="m900 540v-40h40v40z" />
    <text x="919" y="523">2681</text>
    <path d="m940 540v-40h40v40z" />
    <text x="959" y="523">2682</text>
    <path d="m980 540v-40h40v40z" />
    <text x="999" y="523">2683</text>
    <path d="m1020 540v-40h40v40z" />
    <text x="1039" y="523">2684</text>
    <path d="m820 500v-40h40v40z" />
    <text x="839" y="483">2685</text>
    <path d="m860 500v-40h40v40z" />
    <text x="879" y="483">2686</text>
    <path d="m900 500v-40h40v40z" />
    <text x="919" y="483">2687</text>
    <path d="m940 500v-40h40v40z" />
    <text x="959" y="483">2688</text>
    <path d="m980 500v-40h40v40z" />
    <text x="999" y="483">2689</text>
    <path d="m1020 500v-40h40v40z" />
    <text x="1039" y="483">2690</text>
    <path d="m820 460v-40h40v40z" />
    <text x="839" y="443">2691</text>
    <path d="m860 460v-40h40v40z" />
    <text x="879" y="443">2692</text>
    <path d="m900 460v-40h40v40z" />
    <text x="919" y="443">2693</text>
    <path d="m940 460v-40h40v40z" />
    <text x="959" y="443">2694</text>
    <path d="m980 460v-40h40v40z" />
    <text x="999" y="443">2695</text>
    <path d="m1020 460v-40h40v40z" />
    <text x="1039" y="443">2696</text>
    <path d="m820 420v-40h40v40z" />
    <text x="839" y="403">2697</text>
    <path d="m860 420v-40h40v40z" />
    <text x="879" y="403">2698</text>
    <path d="m900 420v-40h40v40z" />
    <text x="919" y="403">2699</text>
    <path d="m940 420v-40h40v40z" />
    <text x="959" y="403">2700</text>
    <path d="m980 420v-40h40v40z" />
    <text x="999" y="403">2701</text>
    <path d="m1020 420v-40h40v40z" />
    <text x="1039" y="403">2702</text>
    <path d="m1140 700v-40h40v40z" />
    <text x="1159" y="683">2703</text>
    <path d="m1180 700v-40h40v40z" />
    <text x="1199" y="683">2704</text>
    <path d="m1140 660v-40h40v40z" />
    <text x="1159" y="643">2705</text>
    <path d="m1180 660v-40h40v40z" />
    <text x="1199" y="643">2706</text>
    <path d="m1140 620v-40h40v40z" />
    <text x="1159" y="603">2707</text>
    <path d="m1180 620v-40h40v40z" />
    <text x="1199" y="603">2708</text>
    <path d="m1140 580v-40h40v40z" />
    <text x="1159" y="563">2709</text>
    <path d="m1180 580v-40h40v40z" />
    <text x="1199" y="563">2710</text>
    <path d="m1140 540v-40h40v40z" />
    <text x="1159" y="523">2711</text>
    <path d="m1180 540v-40h40v40z" />
    <text x="1199" y="523">2712</text>
    <path d="m1140 500v-40h40v40z" />
    <text x="1159" y="483">2713</text>
    <path d="m1180 500v-40h40v40z" />
    <text x="1199" y="483">2714</text>
    <path d="m1140 460v-40h40v40z" />
    <text x="1159" y="443">2715</text>
    <path d="m1180 460v-40h40v40z" />
    <text x="1199" y="443">2716</text>
    <path d="m1140 420v-40h40v40z" />
    <text x="1159" y="403">2717</text>
    <path d="m1180 420v-40h40v40z" />
    <text x="1199" y="403">2718</text>
    <path d="m1320 700v-40h40v40z" />
    <text x="1339" y="683">2719</text>
    <path d="m1360 700v-40h40v40z" />
    <text x="1379" y="683">2720</text>
    <path d="m1400 700v-40h40v40z" />
    <text x="1419" y="683">2721</text>
    <path d="m1440 700v-40h40v40z" />
    <text x="1459" y="683">2722</text>
    <path d="m1480 700v-40h40v40z" />
    <text x="1499" y="683">2723</text>
    <path d="m1520 700v-40h40v40z" />
    <text x="1539" y="683">2724</text>
    <path d="m1320 660v-40h40v40z" />
    <text x="1339" y="643">2725</text>
    <path d="m1360 660v-40h40v40z" />
    <text x="1379" y="643">2726</text>
    <path d="m1400 660v-40h40v40z" />
    <text x="1419" y="643">2727</text>
    <path d="m1440 660v-40h40v40z" />
    <text x="1459" y="643">2728</text>
    <path d="m1480 660v-40h40v40z" />
    <text x="1499" y="643">2729</text>
    <path d="m1520 660v-40h40v40z" />
    <text x="1539" y="643">2730</text>
    <path d="m1320 620v-40h40v40z" />
    <text x="1339" y="603">2731</text>
    <path d="m1360 620v-40h40v40z" />
    <text x="1379" y="603">2732</text>
    <path d="m1400 620v-40h40v40z" />
    <text x="1419" y="603">2733</text>
    <path d="m1440 620v-40h40v40z" />
    <text x="1459" y="603">2734</text>
    <path d="m1480 620v-40h40v40z" />
    <text x="1499" y="603">2735</text>
    <path d="m1520 620v-40h40v40z" />
    <text x="1539" y="603">2736</text>
    <path d="m1320 580v-40h40v40z" />
    <text x="1339" y="563">2737</text>
    <path d="m1360 580v-40h40v40z" />
    <text x="1379" y="563">2738</text>
    <path d="m1400 580v-40h40v40z" />
    <text x="1419" y="563">2739</text>
    <path d="m1440 580v-40h40v40z" />
    <text x="1459" y="563">2740</text>
    <path d="m1480 580v-40h40v40z" />
    <text x="1499" y="563">2741</text>
    <path d="m1520 580v-40h40v40z" />
    <text x="1539" y="563">2742</text>
    <path d="m1320 540v-40h40v40z" />
    <text x="1339" y="523">2743</text>
    <path d="m1360 540v-40h40v40z" />
    <text x="1379" y="523">2744</text>
    <path d="m1400 540v-40h40v40z" />
    <text x="1419" y="523">2745</text>
    <path d="m1440 540v-40h40v40z" />
    <text x="1459" y="523">2746</text>
    <path d="m1480 540v-40h40v40z" />
    <text x="1499" y="523">2747</text>
    <path d="m1520 540v-40h40v40z" />
    <text x="1539" y="523">2748</text>
    <path d="m1320 500v-40h40v40z" />
    <text x="1339" y="483">2749</text>
    <path d="m1360 500v-40h40v40z" />
    <text x="1379" y="483">2750</text>
    <path d="m1400 500v-40h40v40z" />
    <text x="1419" y="483">2751</text>
    <path d="m1440 500v-40h40v40z" />
    <text x="1459" y="483">2752</text>
    <path d="m1480 500v-40h40v40z" />
    <text x="1499" y="483">2753</text>
    <path d="m1520 500v-40h40v40z" />
    <text x="1539" y="483">2754</text>
    <path d="m1320 460v-40h40v40z" />
    <text x="1339" y="443">2755</text>
    <path d="m1360 460v-40h40v40z" />
    <text x="1379" y="443">2756</text>
    <path d="m1400 460v-40h40v40z" />
    <text x="1419" y="443">2757</text>
    <path d="m1440 460v-40h40v40z" />
    <text x="1459" y="443">2758</text>
    <path d="m1480 460v-40h40v40z" />
    <text x="1499" y="443">2759</text>
    <path d="m1520 460v-40h40v40z" />
    <text x="1539" y="443">2760</text>
    <path d="m1320 420v-40h40v40z" />
    <text x="1339" y="403">2761</text>
    <path d="m1360 420v-40h40v40z" />
    <text x="1379" y="403">2762</text>
    <path d="m1400 420v-40h40v40z" />
    <text x="1419" y="403">2763</text>
    <path d="m1440 420v-40h40v40z" />
    <text x="1459" y="403">2764</text>
    <path d="m1480 420v-40h40v40z" />
    <text x="1499" y="403">2765</text>
    <path d="m1520 420v-40h40v40z" />
    <text x="1539" y="403">2766</text>
  </g>
</svg>
