<svg
  height="1080"
  version="1.1"
  viewBox="0 0 1920 1080"
  width="1920"
  xmlns="http://www.w3.org/2000/svg"
>
  <style>
    circle {
      fill: none;
    }
    .map path {
      fill: none;
      stroke-width: 1px;
      stroke: #000;
    }
    .map text {
      font-family: Monaco;
      font-size: 10px;
      text-align: center;
      text-anchor: middle;
    }
  </style>
  <g>
    <path d="m220 490v-40h40v40z" />
    <path d="m260 490v-40h40v40z" />
    <path d="m300 490v-40h40v40z" />
    <path d="m340 490v-40h40v40z" />
    <path d="m380 490v-40h40v40z" />
    <path d="m420 490v-40h40v40z" />
    <path d="m500 490v-40h40v40z" />
    <path d="m540 490v-40h40v40z" />
    <path d="m580 490v-40h40v40z" />
    <path d="m620 490v-40h40v40z" />
    <path d="m660 490v-40h40v40z" />
    <path d="m700 490v-40h40v40z" />
    <path d="m740 490v-40h40v40z" />
    <path d="m780 490v-40h40v40z" />
    <path d="m820 490v-40h40v40z" />
    <path d="m860 490v-40h40v40z" />
    <path d="m900 490v-40h40v40z" />
    <path d="m980 490v-40h40v40z" />
    <path d="m1020 490v-40h40v40z" />
    <path d="m1060 490v-40h40v40z" />
    <path d="m1140 490v-40h40v40z" />
    <path d="m1180 490v-40h40v40z" />
    <path d="m1220 490v-40h40v40z" />
    <path d="m1260 490v-40h40v40z" />
    <path d="m1300 490v-40h40v40z" />
    <path d="m1340 490v-40h40v40z" />
    <path d="m1380 490v-40h40v40z" />
    <path d="m1420 490v-40h40v40z" />
    <path d="m1460 490v-40h40v40z" />
    <path d="m1180 450v-40h40v40z" />
    <path d="m1420 450v-40h40v40z" />
    <path d="m1180 410v-40h40v40z" />
    <path d="m1420 410v-40h40v40z" />
    <g>
      <path d="m1180 130h280v240h-280z" />
      <circle cx="1320" cy="250.5" r="100" />
      <path
        d="m1411.9 250h-183.9c-0.028 5.0696 0.3386 10.141 1.1407 15.146 0.082 0.44333 0.2201 1.3121 0.3027 1.7617 0.4342 2.3971 0.9869 4.8573 1.5879 7.1172 4.1211 15.575 12.386 30.039 23.801 41.42 11.848 11.933 27.046 20.475 43.387 24.43 0.5323 0.12338 1.3882 0.33148 2.0547 0.47266 9.8475 2.1623 20.051 2.6665 30.068 1.541 0.6439-0.0786 1.6108-0.18837 2.377-0.30273 18.349-2.5443 35.857-10.801 49.467-23.373 13.982-12.791 23.829-30.02 27.725-48.568 0.8399-3.9386 1.4353-8.0535 1.7558-12.139 0.061-0.86435 0.1363-2.0004 0.1817-2.9688 0.033-0.7753 0.066-1.8551 0.08-2.748 0.01-0.59663-0.029-1.1925-0.031-1.7891z"
      />
      <path
        d="m1232.2 255.53c1.1286 21.141 10.285 41.726 25.195 56.752 13.097 13.313 30.535 22.285 49 25.127 5.7378 0.89701 11.564 1.2136 17.366 0.97617 0.4072-0.0256 1.329-0.0686 1.7364-0.0911 16.155-0.9705 31.99-6.552 45.202-15.893 12.444-8.748 22.544-20.786 28.975-34.572 4.9362-10.465 7.7199-21.922 8.2444-33.477 0.1917-0.63028-0.923-0.25644-1.3844-0.35547h-174.4c0.022 0.51107 0.043 1.0221 0.064 1.5332z"
      />
      <path
        d="m1321.1 158.52c-1.1987-0.0128-2.3971-4e-3 -3.5957 0.0234-3.0004 0.0866-6.1284 0.33119-8.9551 0.69531-7.77 0.98255-15.414 2.9582-22.688 5.8613-1.6446 0.66349-3.4704 1.4458-5.1446 2.2461-16.665 7.8413-30.833 20.842-40.104 36.754-3.8266 6.5539-6.8476 13.581-8.9472 20.875-0.2277 0.7943-0.525 1.8778-0.7578 2.7871-1.8593 7.2576-2.7869 14.744-2.8282 22.234h183.9c-0.05-15.525-4.1243-31.002-11.736-44.529-1.4475-2.594-3.031-5.1105-4.7188-7.5547-0.2449-0.33712-0.7784-1.095-1.0195-1.4336-4.869-6.7233-10.666-12.771-17.16-17.939-0.6533-0.52046-1.5465-1.2066-2.3046-1.7734-1.708-1.2706-3.3156-2.3885-5.1114-3.5488-3.5555-2.298-7.269-4.3488-11.105-6.1387-0.7357-0.34423-1.8784-0.85589-2.6289-1.1738-1.2104-0.51244-2.2937-0.95832-3.5606-1.4336-1.4365-0.54436-2.7044-0.99086-4.1816-1.4668-4.5384-1.472-9.1901-2.5909-13.9-3.3496-0.7561-0.11933-1.8175-0.27673-2.6934-0.38867-3.5668-0.47837-7.1598-0.70765-10.756-0.74609z"
      />
      <path
        d="m1317.5 162.55c-4.1219 0.13042-8.2351 0.53796-12.301 1.2305-1.8312 0.30931-3.8554 0.7232-5.7391 1.1761-6.6089 1.5913-13.043 3.9229-19.11 6.9919-0.3758 0.20077-1.1011 0.56376-1.4592 0.75515-2.1273 1.1311-4.2107 2.3439-6.242 3.6394-0.7169 0.45817-1.6687 1.0892-2.4629 1.6328-13.998 9.5838-25.119 23.306-31.55 39.007-3.807 9.2064-6.0192 19.069-6.5022 29.02h175.67c-0.1656-3.4588-0.5572-6.9564-1.128-10.297-1.4556-8.5282-4.1564-16.847-8.0302-24.584-0.6319-1.2617-1.3955-2.7136-2.1456-4.0137-10.707-19.1-28.89-33.827-49.762-40.419-2.4815-0.79084-4.9979-1.4696-7.5372-2.0479-0.4003-0.0885-1.1741-0.25081-1.7174-0.36757-6.5688-1.347-13.282-1.8959-19.984-1.7242z"
      />
      <path
        d="m1317.4 154.55c-2.7445 0.055-5.6328 0.30629-8.2637 0.59374-1.3844 0.16222-2.6118 0.31728-4.0201 0.54283-2.112 0.33438-4.3168 0.75256-6.2952 1.2083-10.127 2.2832-19.868 6.2413-28.737 11.634-0.5469 0.35075-1.3805 0.84912-2.0269 1.2791-4.6661 3.005-9.0802 6.4069-13.153 10.178-1.2361 1.1548-2.6133 2.4717-3.8428 3.7517-6.1553 6.3621-11.43 13.577-15.62 21.375-0.3827 0.73019-0.9002 1.724-1.3203 2.5625-7.5469 15.079-10.992 32.172-9.8897 48.997 1.1814 18.783 8.0568 37.158 19.511 52.093 1.4267 1.8685 2.9715 3.7452 4.4723 5.4294 5.7394 6.4737 12.36 12.162 19.622 16.865 0.8262 0.53483 1.8873 1.2013 2.8179 1.765 6.0986 3.6429 12.595 6.6249 19.344 8.8443 0.4519 0.14455 1.3174 0.42755 1.7891 0.5675 15.69 4.8548 32.631 5.5518 48.674 2.0458 0.7298-0.17081 1.765-0.3947 2.6061-0.61083 9.4594-2.3346 18.552-6.1329 26.876-11.194 0.5469-0.35075 1.3805-0.84912 2.0269-1.2791 4.6661-3.005 9.0802-6.4069 13.153-10.178 1.2361-1.1548 2.6133-2.4717 3.8428-3.7517 6.1553-6.3621 11.43-13.577 15.62-21.375 0.3827-0.73019 0.9002-1.724 1.3203-2.5625 7.2891-14.558 10.74-30.993 10-47.253-0.062-1.4876-0.177-2.9724-0.3033-4.4558-0.039-0.40092-0.1246-1.1942-0.1814-1.7453-2.019-18.324-9.4642-36.009-21.18-50.245-11.381-13.919-26.759-24.516-43.824-30.18-6.4359-2.1463-13.098-3.6176-19.842-4.3628-0.5109-0.0557-1.2763-0.1332-1.8848-0.19727-0.402-0.0276-1.1968-0.0968-1.7491-0.14029-3.175-0.22293-6.3603-0.27601-9.5419-0.2015z"
      />
    </g>
    <path d="m1540 490v-40h40v40z" />
    <path d="m1580 490v-40h40v40z" />
    <path d="m1620 490v-40h40v40z" />
    <path d="m1660 490v-40h40v40z" />
    <path d="m540 950v-40h40v40z" />
    <path d="m580 950v-40h40v40z" />
    <path d="m620 950v-40h40v40z" />
    <path d="m660 950v-40h40v40z" />
    <path d="m700 950v-40h40v40z" />
    <path d="m740 950v-40h40v40z" />
    <path d="m780 950v-40h40v40z" />
    <path d="m820 950v-40h40v40z" />
    <path d="m860 950v-40h40v40z" />
    <path d="m900 950v-40h40v40z" />
    <path d="m940 950v-40h40v40z" />
    <path d="m980 950v-40h40v40z" />
    <path d="m1020 950v-40h40v40z" />
    <path d="m1100 950v-40h40v40z" />
    <path d="m1140 950v-40h40v40z" />
    <path d="m1180 950v-40h40v40z" />
    <path d="m1220 950v-40h40v40z" />
    <path d="m1260 950v-40h40v40z" />
    <path d="m1300 950v-40h40v40z" />
    <path d="m1340 950v-40h40v40z" />
  </g>
  <g>
    <path d="m220 410h40v40h-40z" />
    <text x="240" y="433">1</text>
    <path d="m260 410h40v40h-40z" />
    <text x="280" y="433">2</text>
    <path d="m300 410h40v40h-40z" />
    <text x="320" y="433">3</text>
    <path d="m340 410h40v40h-40z" />
    <text x="360" y="433">4</text>
    <path d="m380 410h40v40h-40z" />
    <text x="400" y="433">5</text>
    <path d="m420 410h40v40h-40z" />
    <text x="440" y="433">6</text>
    <path d="m220 370h40v40h-40z" />
    <text x="240" y="393">7</text>
    <path d="m260 370h40v40h-40z" />
    <text x="280" y="393">8</text>
    <path d="m300 370h40v40h-40z" />
    <text x="320" y="393">9</text>
    <path d="m340 370h40v40h-40z" />
    <text x="360" y="393">10</text>
    <path d="m380 370h40v40h-40z" />
    <text x="400" y="393">11</text>
    <path d="m420 370h40v40h-40z" />
    <text x="440" y="393">12</text>
    <path d="m220 330h40v40h-40z" />
    <text x="240" y="353">13</text>
    <path d="m260 330h40v40h-40z" />
    <text x="280" y="353">14</text>
    <path d="m300 330h40v40h-40z" />
    <text x="320" y="353">15</text>
    <path d="m340 330h40v40h-40z" />
    <text x="360" y="353">16</text>
    <path d="m380 330h40v40h-40z" />
    <text x="400" y="353">17</text>
    <path d="m420 330h40v40h-40z" />
    <text x="440" y="353">18</text>
    <path d="m220 290h40v40h-40z" />
    <text x="240" y="313">19</text>
    <path d="m260 290h40v40h-40z" />
    <text x="280" y="313">20</text>
    <path d="m300 290h40v40h-40z" />
    <text x="320" y="313">21</text>
    <path d="m340 290h40v40h-40z" />
    <text x="360" y="313">22</text>
    <path d="m380 290h40v40h-40z" />
    <text x="400" y="313">23</text>
    <path d="m420 290h40v40h-40z" />
    <text x="440" y="313">24</text>
    <path d="m220 250h40v40h-40z" />
    <text x="240" y="273">25</text>
    <path d="m260 250h40v40h-40z" />
    <text x="280" y="273">26</text>
    <path d="m300 250h40v40h-40z" />
    <text x="320" y="273">27</text>
    <path d="m340 250h40v40h-40z" />
    <text x="360" y="273">28</text>
    <path d="m380 250h40v40h-40z" />
    <text x="400" y="273">29</text>
    <path d="m420 250h40v40h-40z" />
    <text x="440" y="273">30</text>
    <path d="m220 210h40v40h-40z" />
    <text x="240" y="233">31</text>
    <path d="m260 210h40v40h-40z" />
    <text x="280" y="233">32</text>
    <path d="m300 210h40v40h-40z" />
    <text x="320" y="233">33</text>
    <path d="m340 210h40v40h-40z" />
    <text x="360" y="233">34</text>
    <path d="m380 210h40v40h-40z" />
    <text x="400" y="233">35</text>
    <path d="m420 210h40v40h-40z" />
    <text x="440" y="233">36</text>
    <path d="m220 170h40v40h-40z" />
    <text x="240" y="193">37</text>
    <path d="m260 170h40v40h-40z" />
    <text x="280" y="193">38</text>
    <path d="m300 170h40v40h-40z" />
    <text x="320" y="193">39</text>
    <path d="m340 170h40v40h-40z" />
    <text x="360" y="193">40</text>
    <path d="m380 170h40v40h-40z" />
    <text x="400" y="193">41</text>
    <path d="m420 170h40v40h-40z" />
    <text x="440" y="193">42</text>
    <path d="m220 130h40v40h-40z" />
    <text x="240" y="153">43</text>
    <path d="m260 130h40v40h-40z" />
    <text x="280" y="153">44</text>
    <path d="m300 130h40v40h-40z" />
    <text x="320" y="153">45</text>
    <path d="m340 130h40v40h-40z" />
    <text x="360" y="153">46</text>
    <path d="m380 130h40v40h-40z" />
    <text x="400" y="153">47</text>
    <path d="m420 130h40v40h-40z" />
    <text x="440" y="153">48</text>
    <path d="m500 410h40v40h-40z" />
    <text x="520" y="433">49</text>
    <path d="m540 410h40v40h-40z" />
    <text x="560" y="433">50</text>
    <path d="m580 410h40v40h-40z" />
    <text x="600" y="433">51</text>
    <path d="m620 410h40v40h-40z" />
    <text x="640" y="433">52</text>
    <path d="m660 410h40v40h-40z" />
    <text x="680" y="433">53</text>
    <path d="m700 410h40v40h-40z" />
    <text x="720" y="433">54</text>
    <path d="m740 410h40v40h-40z" />
    <text x="760" y="433">55</text>
    <path d="m780 410h40v40h-40z" />
    <text x="800" y="433">56</text>
    <path d="m820 410h40v40h-40z" />
    <text x="840" y="433">57</text>
    <path d="m860 410h40v40h-40z" />
    <text x="880" y="433">58</text>
    <path d="m900 410h40v40h-40z" />
    <text x="920" y="433">59</text>
    <path d="m500 370h40v40h-40z" />
    <text x="520" y="393">60</text>
    <path d="m540 370h40v40h-40z" />
    <text x="560" y="393">61</text>
    <path d="m580 370h40v40h-40z" />
    <text x="600" y="393">62</text>
    <path d="m620 370h40v40h-40z" />
    <text x="640" y="393">63</text>
    <path d="m660 370h40v40h-40z" />
    <text x="680" y="393">64</text>
    <path d="m700 370h40v40h-40z" />
    <text x="720" y="393">65</text>
    <path d="m740 370h40v40h-40z" />
    <text x="760" y="393">66</text>
    <path d="m780 370h40v40h-40z" />
    <text x="800" y="393">67</text>
    <path d="m820 370h40v40h-40z" />
    <text x="840" y="393">68</text>
    <path d="m860 370h40v40h-40z" />
    <text x="880" y="393">69</text>
    <path d="m900 370h40v40h-40z" />
    <text x="920" y="393">70</text>
    <path d="m500 330h40v40h-40z" />
    <text x="520" y="353">71</text>
    <path d="m540 330h40v40h-40z" />
    <text x="560" y="353">72</text>
    <path d="m580 330h40v40h-40z" />
    <text x="600" y="353">73</text>
    <path d="m620 330h40v40h-40z" />
    <text x="640" y="353">74</text>
    <path d="m660 330h40v40h-40z" />
    <text x="680" y="353">75</text>
    <path d="m700 330h40v40h-40z" />
    <text x="720" y="353">76</text>
    <path d="m740 330h40v40h-40z" />
    <text x="760" y="353">77</text>
    <path d="m780 330h40v40h-40z" />
    <text x="800" y="353">78</text>
    <path d="m820 330h40v40h-40z" />
    <text x="840" y="353">79</text>
    <path d="m860 330h40v40h-40z" />
    <text x="880" y="353">80</text>
    <path d="m900 330h40v40h-40z" />
    <text x="920" y="353">81</text>
    <path d="m500 290h40v40h-40z" />
    <text x="520" y="313">82</text>
    <path d="m540 290h40v40h-40z" />
    <text x="560" y="313">83</text>
    <path d="m580 290h40v40h-40z" />
    <text x="600" y="313">84</text>
    <path d="m620 290h40v40h-40z" />
    <text x="640" y="313">85</text>
    <path d="m660 290h40v40h-40z" />
    <text x="680" y="313">86</text>
    <path d="m700 290h40v40h-40z" />
    <text x="720" y="313">87</text>
    <path d="m740 290h40v40h-40z" />
    <text x="760" y="313">88</text>
    <path d="m780 290h40v40h-40z" />
    <text x="800" y="313">89</text>
    <path d="m820 290h40v40h-40z" />
    <text x="840" y="313">90</text>
    <path d="m860 290h40v40h-40z" />
    <text x="880" y="313">91</text>
    <path d="m900 290h40v40h-40z" />
    <text x="920" y="313">92</text>
    <path d="m500 250h40v40h-40z" />
    <text x="520" y="273">93</text>
    <path d="m540 250h40v40h-40z" />
    <text x="560" y="273">94</text>
    <path d="m580 250h40v40h-40z" />
    <text x="600" y="273">95</text>
    <path d="m620 250h40v40h-40z" />
    <text x="640" y="273">96</text>
    <path d="m660 250h40v40h-40z" />
    <text x="680" y="273">97</text>
    <path d="m700 250h40v40h-40z" />
    <text x="720" y="273">98</text>
    <path d="m740 250h40v40h-40z" />
    <text x="760" y="273">99</text>
    <path d="m780 250h40v40h-40z" />
    <text x="800" y="273">100</text>
    <path d="m820 250h40v40h-40z" />
    <text x="840" y="273">101</text>
    <path d="m860 250h40v40h-40z" />
    <text x="880" y="273">102</text>
    <path d="m900 250h40v40h-40z" />
    <text x="920" y="273">103</text>
    <path d="m500 210h40v40h-40z" />
    <text x="520" y="233">104</text>
    <path d="m540 210h40v40h-40z" />
    <text x="560" y="233">105</text>
    <path d="m580 210h40v40h-40z" />
    <text x="600" y="233">106</text>
    <path d="m620 210h40v40h-40z" />
    <text x="640" y="233">107</text>
    <path d="m660 210h40v40h-40z" />
    <text x="680" y="233">108</text>
    <path d="m700 210h40v40h-40z" />
    <text x="720" y="233">109</text>
    <path d="m740 210h40v40h-40z" />
    <text x="760" y="233">110</text>
    <path d="m780 210h40v40h-40z" />
    <text x="800" y="233">111</text>
    <path d="m820 210h40v40h-40z" />
    <text x="840" y="233">112</text>
    <path d="m860 210h40v40h-40z" />
    <text x="880" y="233">113</text>
    <path d="m900 210h40v40h-40z" />
    <text x="920" y="233">114</text>
    <path d="m500 170h40v40h-40z" />
    <text x="520" y="193">115</text>
    <path d="m540 170h40v40h-40z" />
    <text x="560" y="193">116</text>
    <path d="m580 170h40v40h-40z" />
    <text x="600" y="193">117</text>
    <path d="m620 170h40v40h-40z" />
    <text x="640" y="193">118</text>
    <path d="m660 170h40v40h-40z" />
    <text x="680" y="193">119</text>
    <path d="m700 170h40v40h-40z" />
    <text x="720" y="193">120</text>
    <path d="m740 170h40v40h-40z" />
    <text x="760" y="193">121</text>
    <path d="m780 170h40v40h-40z" />
    <text x="800" y="193">122</text>
    <path d="m820 170h40v40h-40z" />
    <text x="840" y="193">123</text>
    <path d="m860 170h40v40h-40z" />
    <text x="880" y="193">124</text>
    <path d="m900 170h40v40h-40z" />
    <text x="920" y="193">125</text>
    <path d="m500 130h40v40h-40z" />
    <text x="520" y="153">126</text>
    <path d="m540 130h40v40h-40z" />
    <text x="560" y="153">127</text>
    <path d="m580 130h40v40h-40z" />
    <text x="600" y="153">128</text>
    <path d="m620 130h40v40h-40z" />
    <text x="640" y="153">129</text>
    <path d="m660 130h40v40h-40z" />
    <text x="680" y="153">130</text>
    <path d="m700 130h40v40h-40z" />
    <text x="720" y="153">131</text>
    <path d="m740 130h40v40h-40z" />
    <text x="760" y="153">132</text>
    <path d="m780 130h40v40h-40z" />
    <text x="800" y="153">133</text>
    <path d="m820 130h40v40h-40z" />
    <text x="840" y="153">134</text>
    <path d="m860 130h40v40h-40z" />
    <text x="880" y="153">135</text>
    <path d="m900 130h40v40h-40z" />
    <text x="920" y="153">136</text>
    <path d="m980 410h40v40h-40z" />
    <text x="1000" y="433">137</text>
    <path d="m1020 410h40v40h-40z" />
    <text x="1040" y="433">138</text>
    <path d="m1060 410h40v40h-40z" />
    <text x="1080" y="433">139</text>
    <path d="m980 370h40v40h-40z" />
    <text x="1000" y="393">140</text>
    <path d="m1020 370h40v40h-40z" />
    <text x="1040" y="393">141</text>
    <path d="m1060 370h40v40h-40z" />
    <text x="1080" y="393">142</text>
    <path d="m980 330h40v40h-40z" />
    <text x="1000" y="353">143</text>
    <path d="m1020 330h40v40h-40z" />
    <text x="1040" y="353">144</text>
    <path d="m1060 330h40v40h-40z" />
    <text x="1080" y="353">145</text>
    <path d="m980 290h40v40h-40z" />
    <text x="1000" y="313">146</text>
    <path d="m1020 290h40v40h-40z" />
    <text x="1040" y="313">147</text>
    <path d="m1060 290h40v40h-40z" />
    <text x="1080" y="313">148</text>
    <path d="m980 250h40v40h-40z" />
    <text x="1000" y="273">149</text>
    <path d="m1020 250h40v40h-40z" />
    <text x="1040" y="273">150</text>
    <path d="m1060 250h40v40h-40z" />
    <text x="1080" y="273">151</text>
    <path d="m980 210h40v40h-40z" />
    <text x="1000" y="233">152</text>
    <path d="m1020 210h40v40h-40z" />
    <text x="1040" y="233">153</text>
    <path d="m1060 210h40v40h-40z" />
    <text x="1080" y="233">154</text>
    <path d="m980 170h40v40h-40z" />
    <text x="1000" y="193">155</text>
    <path d="m1020 170h40v40h-40z" />
    <text x="1040" y="193">156</text>
    <path d="m1060 170h40v40h-40z" />
    <text x="1080" y="193">157</text>
    <path d="m980 130h40v40h-40z" />
    <text x="1000" y="153">158</text>
    <path d="m1020 130h40v40h-40z" />
    <text x="1040" y="153">159</text>
    <path d="m1060 130h40v40h-40z" />
    <text x="1080" y="153">160</text>
    <path d="m1140 410h40v40h-40z" />
    <text x="1160" y="433">161</text>
    <path d="m1220 410h40v40h-40z" />
    <text x="1240" y="433">162</text>
    <path d="m1260 410h40v40h-40z" />
    <text x="1280" y="433">163</text>
    <path d="m1300 410h40v40h-40z" />
    <text x="1320" y="433">164</text>
    <path d="m1340 410h40v40h-40z" />
    <text x="1360" y="433">165</text>
    <path d="m1380 410h40v40h-40z" />
    <text x="1400" y="433">166</text>
    <path d="m1460 410h40v40h-40z" />
    <text x="1480" y="433">167</text>
    <path d="m1140 370h40v40h-40z" />
    <text x="1160" y="393">168</text>
    <path d="m1220 370h40v40h-40z" />
    <text x="1240" y="393">169</text>
    <path d="m1260 370h40v40h-40z" />
    <text x="1280" y="393">170</text>
    <path d="m1300 370h40v40h-40z" />
    <text x="1320" y="393">171</text>
    <path d="m1340 370h40v40h-40z" />
    <text x="1360" y="393">172</text>
    <path d="m1380 370h40v40h-40z" />
    <text x="1400" y="393">173</text>
    <path d="m1460 370h40v40h-40z" />
    <text x="1480" y="393">174</text>
    <path d="m1140 330h40v40h-40z" />
    <text x="1160" y="353">175</text>
    <path d="m1460 330h40v40h-40z" />
    <text x="1480" y="353">176</text>
    <path d="m1140 290h40v40h-40z" />
    <text x="1160" y="313">177</text>
    <path d="m1460 290h40v40h-40z" />
    <text x="1480" y="313">178</text>
    <path d="m1140 250h40v40h-40z" />
    <text x="1160" y="273">179</text>
    <path d="m1460 250h40v40h-40z" />
    <text x="1480" y="273">180</text>
    <path d="m1140 210h40v40h-40z" />
    <text x="1160" y="233">181</text>
    <path d="m1460 210h40v40h-40z" />
    <text x="1480" y="233">182</text>
    <path d="m1140 170h40v40h-40z" />
    <text x="1160" y="193">183</text>
    <path d="m1460 170h40v40h-40z" />
    <text x="1480" y="193">184</text>
    <path d="m1140 130h40v40h-40z" />
    <text x="1160" y="153">185</text>
    <path d="m1460 130h40v40h-40z" />
    <text x="1480" y="153">186</text>
    <path d="m1540 410h40v40h-40z" />
    <text x="1560" y="433">187</text>
    <path d="m1580 410h40v40h-40z" />
    <text x="1600" y="433">188</text>
    <path d="m1620 410h40v40h-40z" />
    <text x="1640" y="433">189</text>
    <path d="m1660 410h40v40h-40z" />
    <text x="1680" y="433">190</text>
    <path d="m1540 370h40v40h-40z" />
    <text x="1560" y="393">191</text>
    <path d="m1580 370h40v40h-40z" />
    <text x="1600" y="393">192</text>
    <path d="m1620 370h40v40h-40z" />
    <text x="1640" y="393">193</text>
    <path d="m1660 370h40v40h-40z" />
    <text x="1680" y="393">194</text>
    <path d="m1540 330h40v40h-40z" />
    <text x="1560" y="353">195</text>
    <path d="m1580 330h40v40h-40z" />
    <text x="1600" y="353">196</text>
    <path d="m1620 330h40v40h-40z" />
    <text x="1640" y="353">197</text>
    <path d="m1660 330h40v40h-40z" />
    <text x="1680" y="353">198</text>
    <path d="m1540 290h40v40h-40z" />
    <text x="1560" y="313">199</text>
    <path d="m1580 290h40v40h-40z" />
    <text x="1600" y="313">200</text>
    <path d="m1620 290h40v40h-40z" />
    <text x="1640" y="313">201</text>
    <path d="m1660 290h40v40h-40z" />
    <text x="1680" y="313">202</text>
    <path d="m1540 250h40v40h-40z" />
    <text x="1560" y="273">203</text>
    <path d="m1580 250h40v40h-40z" />
    <text x="1600" y="273">204</text>
    <path d="m1620 250h40v40h-40z" />
    <text x="1640" y="273">205</text>
    <path d="m1660 250h40v40h-40z" />
    <text x="1680" y="273">206</text>
    <path d="m1540 210h40v40h-40z" />
    <text x="1560" y="233">207</text>
    <path d="m1580 210h40v40h-40z" />
    <text x="1600" y="233">208</text>
    <path d="m1620 210h40v40h-40z" />
    <text x="1640" y="233">209</text>
    <path d="m1660 210h40v40h-40z" />
    <text x="1680" y="233">210</text>
    <path d="m1540 170h40v40h-40z" />
    <text x="1560" y="193">211</text>
    <path d="m1580 170h40v40h-40z" />
    <text x="1600" y="193">212</text>
    <path d="m1620 170h40v40h-40z" />
    <text x="1640" y="193">213</text>
    <path d="m1660 170h40v40h-40z" />
    <text x="1680" y="193">214</text>
    <path d="m1540 130h40v40h-40z" />
    <text x="1560" y="153">215</text>
    <path d="m1580 130h40v40h-40z" />
    <text x="1600" y="153">216</text>
    <path d="m1620 130h40v40h-40z" />
    <text x="1640" y="153">217</text>
    <path d="m1660 130h40v40h-40z" />
    <text x="1680" y="153">218</text>
    <path d="m540 870h40v40h-40z" />
    <text x="560" y="893">219</text>
    <path d="m580 870h40v40h-40z" />
    <text x="600" y="893">220</text>
    <path d="m620 870h40v40h-40z" />
    <text x="640" y="893">221</text>
    <path d="m660 870h40v40h-40z" />
    <text x="680" y="893">222</text>
    <path d="m700 870h40v40h-40z" />
    <text x="720" y="893">223</text>
    <path d="m740 870h40v40h-40z" />
    <text x="760" y="893">224</text>
    <path d="m780 870h40v40h-40z" />
    <text x="800" y="893">225</text>
    <path d="m820 870h40v40h-40z" />
    <text x="840" y="893">226</text>
    <path d="m860 870h40v40h-40z" />
    <text x="880" y="893">227</text>
    <path d="m900 870h40v40h-40z" />
    <text x="920" y="893">228</text>
    <path d="m940 870h40v40h-40z" />
    <text x="960" y="893">229</text>
    <path d="m980 870h40v40h-40z" />
    <text x="1000" y="893">230</text>
    <path d="m1020 870h40v40h-40z" />
    <text x="1040" y="893">231</text>
    <path d="m540 830h40v40h-40z" />
    <text x="560" y="853">232</text>
    <path d="m580 830h40v40h-40z" />
    <text x="600" y="853">233</text>
    <path d="m620 830h40v40h-40z" />
    <text x="640" y="853">234</text>
    <path d="m660 830h40v40h-40z" />
    <text x="680" y="853">235</text>
    <path d="m700 830h40v40h-40z" />
    <text x="720" y="853">236</text>
    <path d="m740 830h40v40h-40z" />
    <text x="760" y="853">237</text>
    <path d="m780 830h40v40h-40z" />
    <text x="800" y="853">238</text>
    <path d="m820 830h40v40h-40z" />
    <text x="840" y="853">239</text>
    <path d="m860 830h40v40h-40z" />
    <text x="880" y="853">240</text>
    <path d="m900 830h40v40h-40z" />
    <text x="920" y="853">241</text>
    <path d="m940 830h40v40h-40z" />
    <text x="960" y="853">242</text>
    <path d="m980 830h40v40h-40z" />
    <text x="1000" y="853">243</text>
    <path d="m1020 830h40v40h-40z" />
    <text x="1040" y="853">244</text>
    <path d="m540 790h40v40h-40z" />
    <text x="560" y="813">245</text>
    <path d="m580 790h40v40h-40z" />
    <text x="600" y="813">246</text>
    <path d="m620 790h40v40h-40z" />
    <text x="640" y="813">247</text>
    <path d="m660 790h40v40h-40z" />
    <text x="680" y="813">248</text>
    <path d="m700 790h40v40h-40z" />
    <text x="720" y="813">249</text>
    <path d="m740 790h40v40h-40z" />
    <text x="760" y="813">250</text>
    <path d="m780 790h40v40h-40z" />
    <text x="800" y="813">251</text>
    <path d="m820 790h40v40h-40z" />
    <text x="840" y="813">252</text>
    <path d="m860 790h40v40h-40z" />
    <text x="880" y="813">253</text>
    <path d="m900 790h40v40h-40z" />
    <text x="920" y="813">254</text>
    <path d="m940 790h40v40h-40z" />
    <text x="960" y="813">255</text>
    <path d="m980 790h40v40h-40z" />
    <text x="1000" y="813">256</text>
    <path d="m1020 790h40v40h-40z" />
    <text x="1040" y="813">257</text>
    <path d="m540 750h40v40h-40z" />
    <text x="560" y="773">258</text>
    <path d="m580 750h40v40h-40z" />
    <text x="600" y="773">259</text>
    <path d="m620 750h40v40h-40z" />
    <text x="640" y="773">260</text>
    <path d="m660 750h40v40h-40z" />
    <text x="680" y="773">261</text>
    <path d="m700 750h40v40h-40z" />
    <text x="720" y="773">262</text>
    <path d="m740 750h40v40h-40z" />
    <text x="760" y="773">263</text>
    <path d="m780 750h40v40h-40z" />
    <text x="800" y="773">264</text>
    <path d="m820 750h40v40h-40z" />
    <text x="840" y="773">265</text>
    <path d="m860 750h40v40h-40z" />
    <text x="880" y="773">266</text>
    <path d="m900 750h40v40h-40z" />
    <text x="920" y="773">267</text>
    <path d="m940 750h40v40h-40z" />
    <text x="960" y="773">268</text>
    <path d="m980 750h40v40h-40z" />
    <text x="1000" y="773">269</text>
    <path d="m1020 750h40v40h-40z" />
    <text x="1040" y="773">270</text>
    <path d="m540 710h40v40h-40z" />
    <text x="560" y="733">271</text>
    <path d="m580 710h40v40h-40z" />
    <text x="600" y="733">272</text>
    <path d="m620 710h40v40h-40z" />
    <text x="640" y="733">273</text>
    <path d="m660 710h40v40h-40z" />
    <text x="680" y="733">274</text>
    <path d="m700 710h40v40h-40z" />
    <text x="720" y="733">275</text>
    <path d="m740 710h40v40h-40z" />
    <text x="760" y="733">276</text>
    <path d="m780 710h40v40h-40z" />
    <text x="800" y="733">277</text>
    <path d="m820 710h40v40h-40z" />
    <text x="840" y="733">278</text>
    <path d="m860 710h40v40h-40z" />
    <text x="880" y="733">279</text>
    <path d="m900 710h40v40h-40z" />
    <text x="920" y="733">280</text>
    <path d="m940 710h40v40h-40z" />
    <text x="960" y="733">281</text>
    <path d="m980 710h40v40h-40z" />
    <text x="1000" y="733">282</text>
    <path d="m1020 710h40v40h-40z" />
    <text x="1040" y="733">283</text>
    <path d="m540 670h40v40h-40z" />
    <text x="560" y="693">284</text>
    <path d="m580 670h40v40h-40z" />
    <text x="600" y="693">285</text>
    <path d="m620 670h40v40h-40z" />
    <text x="640" y="693">286</text>
    <path d="m660 670h40v40h-40z" />
    <text x="680" y="693">287</text>
    <path d="m700 670h40v40h-40z" />
    <text x="720" y="693">288</text>
    <path d="m740 670h40v40h-40z" />
    <text x="760" y="693">289</text>
    <path d="m780 670h40v40h-40z" />
    <text x="800" y="693">290</text>
    <path d="m820 670h40v40h-40z" />
    <text x="840" y="693">291</text>
    <path d="m860 670h40v40h-40z" />
    <text x="880" y="693">292</text>
    <path d="m900 670h40v40h-40z" />
    <text x="920" y="693">293</text>
    <path d="m940 670h40v40h-40z" />
    <text x="960" y="693">294</text>
    <path d="m980 670h40v40h-40z" />
    <text x="1000" y="693">295</text>
    <path d="m1020 670h40v40h-40z" />
    <text x="1040" y="693">296</text>
    <path d="m540 630h40v40h-40z" />
    <text x="560" y="653">297</text>
    <path d="m580 630h40v40h-40z" />
    <text x="600" y="653">298</text>
    <path d="m620 630h40v40h-40z" />
    <text x="640" y="653">299</text>
    <path d="m660 630h40v40h-40z" />
    <text x="680" y="653">300</text>
    <path d="m700 630h40v40h-40z" />
    <text x="720" y="653">301</text>
    <path d="m740 630h40v40h-40z" />
    <text x="760" y="653">302</text>
    <path d="m780 630h40v40h-40z" />
    <text x="800" y="653">303</text>
    <path d="m820 630h40v40h-40z" />
    <text x="840" y="653">304</text>
    <path d="m860 630h40v40h-40z" />
    <text x="880" y="653">305</text>
    <path d="m900 630h40v40h-40z" />
    <text x="920" y="653">306</text>
    <path d="m940 630h40v40h-40z" />
    <text x="960" y="653">307</text>
    <path d="m980 630h40v40h-40z" />
    <text x="1000" y="653">308</text>
    <path d="m1020 630h40v40h-40z" />
    <text x="1040" y="653">309</text>
    <path d="m540 590h40v40h-40z" />
    <text x="560" y="613">310</text>
    <path d="m580 590h40v40h-40z" />
    <text x="600" y="613">311</text>
    <path d="m620 590h40v40h-40z" />
    <text x="640" y="613">312</text>
    <path d="m660 590h40v40h-40z" />
    <text x="680" y="613">313</text>
    <path d="m700 590h40v40h-40z" />
    <text x="720" y="613">314</text>
    <path d="m740 590h40v40h-40z" />
    <text x="760" y="613">315</text>
    <path d="m780 590h40v40h-40z" />
    <text x="800" y="613">316</text>
    <path d="m820 590h40v40h-40z" />
    <text x="840" y="613">317</text>
    <path d="m860 590h40v40h-40z" />
    <text x="880" y="613">318</text>
    <path d="m900 590h40v40h-40z" />
    <text x="920" y="613">319</text>
    <path d="m940 590h40v40h-40z" />
    <text x="960" y="613">320</text>
    <path d="m980 590h40v40h-40z" />
    <text x="1000" y="613">321</text>
    <path d="m1020 590h40v40h-40z" />
    <text x="1040" y="613">322</text>
    <path d="m1100 870h40v40h-40z" />
    <text x="1120" y="893">323</text>
    <path d="m1140 870h40v40h-40z" />
    <text x="1160" y="893">324</text>
    <path d="m1180 870h40v40h-40z" />
    <text x="1200" y="893">325</text>
    <path d="m1220 870h40v40h-40z" />
    <text x="1240" y="893">326</text>
    <path d="m1260 870h40v40h-40z" />
    <text x="1280" y="893">327</text>
    <path d="m1300 870h40v40h-40z" />
    <text x="1320" y="893">328</text>
    <path d="m1340 870h40v40h-40z" />
    <text x="1360" y="893">329</text>
    <path d="m1100 830h40v40h-40z" />
    <text x="1120" y="853">330</text>
    <path d="m1140 830h40v40h-40z" />
    <text x="1160" y="853">331</text>
    <path d="m1180 830h40v40h-40z" />
    <text x="1200" y="853">332</text>
    <path d="m1220 830h40v40h-40z" />
    <text x="1240" y="853">333</text>
    <path d="m1260 830h40v40h-40z" />
    <text x="1280" y="853">334</text>
    <path d="m1300 830h40v40h-40z" />
    <text x="1320" y="853">335</text>
    <path d="m1340 830h40v40h-40z" />
    <text x="1360" y="853">336</text>
    <path d="m1100 790h40v40h-40z" />
    <text x="1120" y="813">337</text>
    <path d="m1140 790h40v40h-40z" />
    <text x="1160" y="813">338</text>
    <path d="m1180 790h40v40h-40z" />
    <text x="1200" y="813">339</text>
    <path d="m1220 790h40v40h-40z" />
    <text x="1240" y="813">340</text>
    <path d="m1260 790h40v40h-40z" />
    <text x="1280" y="813">341</text>
    <path d="m1300 790h40v40h-40z" />
    <text x="1320" y="813">342</text>
    <path d="m1340 790h40v40h-40z" />
    <text x="1360" y="813">343</text>
    <path d="m1100 750h40v40h-40z" />
    <text x="1120" y="773">344</text>
    <path d="m1140 750h40v40h-40z" />
    <text x="1160" y="773">345</text>
    <path d="m1180 750h40v40h-40z" />
    <text x="1200" y="773">346</text>
    <path d="m1220 750h40v40h-40z" />
    <text x="1240" y="773">347</text>
    <path d="m1260 750h40v40h-40z" />
    <text x="1280" y="773">348</text>
    <path d="m1300 750h40v40h-40z" />
    <text x="1320" y="773">349</text>
    <path d="m1340 750h40v40h-40z" />
    <text x="1360" y="773">350</text>
    <path d="m1100 710h40v40h-40z" />
    <text x="1120" y="733">351</text>
    <path d="m1140 710h40v40h-40z" />
    <text x="1160" y="733">352</text>
    <path d="m1180 710h40v40h-40z" />
    <text x="1200" y="733">353</text>
    <path d="m1220 710h40v40h-40z" />
    <text x="1240" y="733">354</text>
    <path d="m1260 710h40v40h-40z" />
    <text x="1280" y="733">355</text>
    <path d="m1300 710h40v40h-40z" />
    <text x="1320" y="733">356</text>
    <path d="m1340 710h40v40h-40z" />
    <text x="1360" y="733">357</text>
    <path d="m1100 670h40v40h-40z" />
    <text x="1120" y="693">358</text>
    <path d="m1140 670h40v40h-40z" />
    <text x="1160" y="693">359</text>
    <path d="m1180 670h40v40h-40z" />
    <text x="1200" y="693">360</text>
    <path d="m1220 670h40v40h-40z" />
    <text x="1240" y="693">361</text>
    <path d="m1260 670h40v40h-40z" />
    <text x="1280" y="693">362</text>
    <path d="m1300 670h40v40h-40z" />
    <text x="1320" y="693">363</text>
    <path d="m1340 670h40v40h-40z" />
    <text x="1360" y="693">364</text>
    <path d="m1100 630h40v40h-40z" />
    <text x="1120" y="653">365</text>
    <path d="m1140 630h40v40h-40z" />
    <text x="1160" y="653">366</text>
    <path d="m1180 630h40v40h-40z" />
    <text x="1200" y="653">367</text>
    <path d="m1220 630h40v40h-40z" />
    <text x="1240" y="653">368</text>
    <path d="m1260 630h40v40h-40z" />
    <text x="1280" y="653">369</text>
    <path d="m1300 630h40v40h-40z" />
    <text x="1320" y="653">370</text>
    <path d="m1340 630h40v40h-40z" />
    <text x="1360" y="653">371</text>
    <path d="m1100 590h40v40h-40z" />
    <text x="1120" y="613">372</text>
    <path d="m1140 590h40v40h-40z" />
    <text x="1160" y="613">373</text>
    <path d="m1180 590h40v40h-40z" />
    <text x="1200" y="613">374</text>
    <path d="m1220 590h40v40h-40z" />
    <text x="1240" y="613">375</text>
    <path d="m1260 590h40v40h-40z" />
    <text x="1280" y="613">376</text>
    <path d="m1300 590h40v40h-40z" />
    <text x="1320" y="613">377</text>
    <path d="m1340 590h40v40h-40z" />
    <text x="1360" y="613">378</text>
  </g>
</svg>
