<?xml version="1.0" encoding="UTF-8"?>
<?xml-stylesheet href="../../styles/svg.css" type="text/css"?>
<svg version="1.1" viewBox="0 0 380 282" xmlns="http://www.w3.org/2000/svg">
  <g transform="translate(0,1)">
    <g transform="translate(0,0)">
      <g>
        <rect y="15" width="150" height="265"/>
        <rect x="30" width="90" height="15"/>
      </g>
      <g fill="none">
        <rect y="270" width="75" height="10"/>
        <rect x="75" y="270" width="75" height="10"/>
        <rect y="15" width="75" height="10"/>
        <rect x="75" y="15" width="75" height="10"/>
        <rect y="25" width="10" height="122.5"/>
        <rect y="147.5" width="10" height="122.5"/>
        <rect x="140" y="25" width="10" height="122.5"/>
        <rect x="140" y="147.5" width="10" height="122.5"/>
      </g>
      <g>
        <rect class="slot" x="10" y="221" width="130" height="49"/>
        <rect class="slot" x="10" y="172" width="130" height="49"/>
        <rect class="slot" x="10" y="123" width="130" height="49"/>
        <rect class="slot" x="10" y="74" width="130" height="49"/>
        <rect class="slot" x="10" y="25" width="130" height="49"/>
      </g>
    </g>
    <g transform="translate(229,0)">
      <g>
        <rect y="15" width="150" height="265"/>
        <rect x="30" width="90" height="15"/>
      </g>
      <g fill="none">
        <rect y="270" width="75" height="10"/>
        <rect x="75" y="270" width="75" height="10"/>
        <rect y="15" width="75" height="10"/>
        <rect x="75" y="15" width="75" height="10"/>
        <rect y="25" width="10" height="122.5"/>
        <rect y="147.5" width="10" height="122.5"/>
        <rect x="140" y="25" width="10" height="122.5"/>
        <rect x="140" y="147.5" width="10" height="122.5"/>
      </g>
      <g>
        <rect class="slot" x="10" y="221" width="130" height="49"/>
        <rect class="slot" x="10" y="172" width="130" height="49"/>
        <rect class="slot" x="10" y="123" width="130" height="49"/>
        <rect class="slot" x="10" y="74" width="130" height="49"/>
        <rect class="slot" x="10" y="25" width="130" height="49"/>
      </g>
    </g>
  </g>
</svg>
