<?xml version="1.0" encoding="UTF-8"?>
<?xml-stylesheet href="../../styles/svg.css" type="text/css"?>
<svg version="1.1" viewBox="0 0 1132 442" xmlns="http://www.w3.org/2000/svg">
  <g transform="translate(1,1)">
    <g>
      <rect class="base" x="0" y="400" width="40" height="40"/>
      <rect class="base" x="50" y="400" width="40" height="40"/>
      <rect class="base" x="100" y="400" width="40" height="40"/>
      <rect class="base" x="150" y="400" width="40" height="40"/>
      <rect class="base" x="200" y="400" width="40" height="40"/>
      <rect class="base" x="250" y="400" width="40" height="40"/>
      <rect class="slot single" x="0" y="350" width="40" height="40"/>
      <rect class="slot" x="50" y="350" width="40" height="40"/>
      <rect class="slot" x="100" y="350" width="40" height="40"/>
      <rect class="slot" x="150" y="350" width="40" height="40"/>
      <rect class="slot" x="200" y="350" width="40" height="40"/>
      <rect class="slot" x="250" y="350" width="40" height="40"/>
      <rect class="slot single" x="0" y="300" width="40" height="40"/>
      <rect class="slot" x="50" y="300" width="40" height="40"/>
      <rect class="slot" x="100" y="300" width="40" height="40"/>
      <rect class="slot" x="150" y="300" width="40" height="40"/>
      <rect class="slot" x="200" y="300" width="40" height="40"/>
      <rect class="slot" x="250" y="300" width="40" height="40"/>
      <rect class="slot single" x="0" y="250" width="40" height="40"/>
      <rect class="slot" x="50" y="250" width="40" height="40"/>
      <rect class="slot" x="100" y="250" width="40" height="40"/>
      <rect class="slot" x="150" y="250" width="40" height="40"/>
      <rect class="slot" x="200" y="250" width="40" height="40"/>
      <rect class="slot" x="250" y="250" width="40" height="40"/>
      <rect class="slot single" x="0" y="200" width="40" height="40"/>
      <rect class="slot" x="50" y="200" width="40" height="40"/>
      <rect class="slot" x="100" y="200" width="40" height="40"/>
      <rect class="slot" x="150" y="200" width="40" height="40"/>
      <rect class="slot" x="200" y="200" width="40" height="40"/>
      <rect class="slot" x="250" y="200" width="40" height="40"/>
      <rect class="slot single" x="0" y="150" width="40" height="40"/>
      <rect class="slot" x="50" y="150" width="40" height="40"/>
      <rect class="slot" x="100" y="150" width="40" height="40"/>
      <rect class="slot" x="150" y="150" width="40" height="40"/>
      <rect class="slot" x="200" y="150" width="40" height="40"/>
      <rect class="slot" x="250" y="150" width="40" height="40"/>
      <rect class="slot single" x="0" y="100" width="40" height="40"/>
      <rect class="slot" x="50" y="100" width="40" height="40"/>
      <rect class="slot" x="100" y="100" width="40" height="40"/>
      <rect class="slot" x="150" y="100" width="40" height="40"/>
      <rect class="slot" x="200" y="100" width="40" height="40"/>
      <rect class="slot" x="250" y="100" width="40" height="40"/>
      <rect class="slot single" x="0" y="50" width="40" height="40"/>
      <rect class="slot" x="50" y="50" width="40" height="40"/>
      <rect class="slot" x="100" y="50" width="40" height="40"/>
      <rect class="slot" x="150" y="50" width="40" height="40"/>
      <rect class="slot" x="200" y="50" width="40" height="40"/>
      <rect class="slot" x="250" y="50" width="40" height="40"/>
      <rect class="slot single" x="0" y="0" width="40" height="40"/>
      <rect class="slot" x="50" y="0" width="40" height="40"/>
      <rect class="slot" x="100" y="0" width="40" height="40"/>
      <rect class="slot" x="150" y="0" width="40" height="40"/>
      <rect class="slot" x="200" y="0" width="40" height="40"/>
      <rect class="slot" x="250" y="0" width="40" height="40"/>
    </g>
    <g>
      <rect class="base" x="370" y="400" width="40" height="40"/>
      <rect class="base" x="420" y="400" width="40" height="40"/>
      <rect class="base" x="470" y="400" width="40" height="40"/>
      <rect class="base" x="520" y="400" width="40" height="40"/>
      <rect class="base" x="570" y="400" width="40" height="40"/>
      <rect class="base" x="620" y="400" width="40" height="40"/>
      <rect class="base" x="670" y="400" width="40" height="40"/>
      <rect class="base" x="720" y="400" width="40" height="40"/>
      <rect class="base" x="770" y="400" width="40" height="40"/>
      <rect class="base" x="820" y="400" width="40" height="40"/>
      <rect class="base" x="870" y="400" width="40" height="40"/>
      <rect class="slot" x="370" y="350" width="40" height="40"/>
      <rect class="slot" x="420" y="350" width="40" height="40"/>
      <rect class="slot" x="470" y="350" width="40" height="40"/>
      <rect class="slot" x="520" y="350" width="40" height="40"/>
      <rect class="slot single" x="570" y="350" width="40" height="40"/>
      <rect class="slot" x="620" y="350" width="40" height="40"/>
      <rect class="slot" x="670" y="350" width="40" height="40"/>
      <rect class="slot" x="720" y="350" width="40" height="40"/>
      <rect class="slot" x="770" y="350" width="40" height="40"/>
      <rect class="slot" x="820" y="350" width="40" height="40"/>
      <rect class="slot" x="870" y="350" width="40" height="40"/>
      <rect class="slot" x="370" y="300" width="40" height="40"/>
      <rect class="slot" x="420" y="300" width="40" height="40"/>
      <rect class="slot" x="470" y="300" width="40" height="40"/>
      <rect class="slot" x="520" y="300" width="40" height="40"/>
      <rect class="slot single" x="570" y="300" width="40" height="40"/>
      <rect class="slot" x="620" y="300" width="40" height="40"/>
      <rect class="slot" x="670" y="300" width="40" height="40"/>
      <rect class="slot" x="720" y="300" width="40" height="40"/>
      <rect class="slot" x="770" y="300" width="40" height="40"/>
      <rect class="slot" x="820" y="300" width="40" height="40"/>
      <rect class="slot" x="870" y="300" width="40" height="40"/>
      <rect class="slot" x="370" y="250" width="40" height="40"/>
      <rect class="slot" x="420" y="250" width="40" height="40"/>
      <rect class="slot" x="470" y="250" width="40" height="40"/>
      <rect class="slot" x="520" y="250" width="40" height="40"/>
      <rect class="slot single" x="570" y="250" width="40" height="40"/>
      <rect class="slot" x="620" y="250" width="40" height="40"/>
      <rect class="slot" x="670" y="250" width="40" height="40"/>
      <rect class="slot" x="720" y="250" width="40" height="40"/>
      <rect class="slot" x="770" y="250" width="40" height="40"/>
      <rect class="slot" x="820" y="250" width="40" height="40"/>
      <rect class="slot" x="870" y="250" width="40" height="40"/>
      <rect class="slot" x="370" y="200" width="40" height="40"/>
      <rect class="slot" x="420" y="200" width="40" height="40"/>
      <rect class="slot" x="470" y="200" width="40" height="40"/>
      <rect class="slot" x="520" y="200" width="40" height="40"/>
      <rect class="slot single" x="570" y="200" width="40" height="40"/>
      <rect class="slot" x="620" y="200" width="40" height="40"/>
      <rect class="slot" x="670" y="200" width="40" height="40"/>
      <rect class="slot" x="720" y="200" width="40" height="40"/>
      <rect class="slot" x="770" y="200" width="40" height="40"/>
      <rect class="slot" x="820" y="200" width="40" height="40"/>
      <rect class="slot" x="870" y="200" width="40" height="40"/>
      <rect class="slot" x="370" y="150" width="40" height="40"/>
      <rect class="slot" x="420" y="150" width="40" height="40"/>
      <rect class="slot" x="470" y="150" width="40" height="40"/>
      <rect class="slot" x="520" y="150" width="40" height="40"/>
      <rect class="slot single" x="570" y="150" width="40" height="40"/>
      <rect class="slot" x="620" y="150" width="40" height="40"/>
      <rect class="slot" x="670" y="150" width="40" height="40"/>
      <rect class="slot" x="720" y="150" width="40" height="40"/>
      <rect class="slot" x="770" y="150" width="40" height="40"/>
      <rect class="slot" x="820" y="150" width="40" height="40"/>
      <rect class="slot" x="870" y="150" width="40" height="40"/>
      <rect class="slot" x="370" y="100" width="40" height="40"/>
      <rect class="slot" x="420" y="100" width="40" height="40"/>
      <rect class="slot" x="470" y="100" width="40" height="40"/>
      <rect class="slot" x="520" y="100" width="40" height="40"/>
      <rect class="slot single" x="570" y="100" width="40" height="40"/>
      <rect class="slot" x="620" y="100" width="40" height="40"/>
      <rect class="slot" x="670" y="100" width="40" height="40"/>
      <rect class="slot" x="720" y="100" width="40" height="40"/>
      <rect class="slot" x="770" y="100" width="40" height="40"/>
      <rect class="slot" x="820" y="100" width="40" height="40"/>
      <rect class="slot" x="870" y="100" width="40" height="40"/>
      <rect class="slot" x="370" y="50" width="40" height="40"/>
      <rect class="slot" x="420" y="50" width="40" height="40"/>
      <rect class="slot" x="470" y="50" width="40" height="40"/>
      <rect class="slot" x="520" y="50" width="40" height="40"/>
      <rect class="slot single" x="570" y="50" width="40" height="40"/>
      <rect class="slot" x="620" y="50" width="40" height="40"/>
      <rect class="slot" x="670" y="50" width="40" height="40"/>
      <rect class="slot" x="720" y="50" width="40" height="40"/>
      <rect class="slot" x="770" y="50" width="40" height="40"/>
      <rect class="slot" x="820" y="50" width="40" height="40"/>
      <rect class="slot" x="870" y="50" width="40" height="40"/>
      <rect class="slot" x="370" y="0" width="40" height="40"/>
      <rect class="slot" x="420" y="0" width="40" height="40"/>
      <rect class="slot" x="470" y="0" width="40" height="40"/>
      <rect class="slot" x="520" y="0" width="40" height="40"/>
      <rect class="slot single" x="570" y="0" width="40" height="40"/>
      <rect class="slot" x="620" y="0" width="40" height="40"/>
      <rect class="slot" x="670" y="0" width="40" height="40"/>
      <rect class="slot" x="720" y="0" width="40" height="40"/>
      <rect class="slot" x="770" y="0" width="40" height="40"/>
      <rect class="slot" x="820" y="0" width="40" height="40"/>
      <rect class="slot" x="870" y="0" width="40" height="40"/>
    </g>
    <g>
      <rect class="base" x="990" y="400" width="40" height="40"/>
      <rect class="base" x="1040" y="400" width="40" height="40"/>
      <rect class="base" x="1090" y="400" width="40" height="40"/>
      <rect class="slot" x="990" y="350" width="40" height="40"/>
      <rect class="slot" x="1040" y="350" width="40" height="40"/>
      <rect class="slot single" x="1090" y="350" width="40" height="40"/>
      <rect class="slot" x="990" y="300" width="40" height="40"/>
      <rect class="slot" x="1040" y="300" width="40" height="40"/>
      <rect class="slot single" x="1090" y="300" width="40" height="40"/>
      <rect class="slot" x="990" y="250" width="40" height="40"/>
      <rect class="slot" x="1040" y="250" width="40" height="40"/>
      <rect class="slot single" x="1090" y="250" width="40" height="40"/>
      <rect class="slot" x="990" y="200" width="40" height="40"/>
      <rect class="slot" x="1040" y="200" width="40" height="40"/>
      <rect class="slot single" x="1090" y="200" width="40" height="40"/>
      <rect class="slot" x="990" y="150" width="40" height="40"/>
      <rect class="slot" x="1040" y="150" width="40" height="40"/>
      <rect class="slot single" x="1090" y="150" width="40" height="40"/>
      <rect class="slot" x="990" y="100" width="40" height="40"/>
      <rect class="slot" x="1040" y="100" width="40" height="40"/>
      <rect class="slot single" x="1090" y="100" width="40" height="40"/>
      <rect class="slot" x="990" y="50" width="40" height="40"/>
      <rect class="slot" x="1040" y="50" width="40" height="40"/>
      <rect class="slot single" x="1090" y="50" width="40" height="40"/>
      <rect class="slot" x="990" y="0" width="40" height="40"/>
      <rect class="slot" x="1040" y="0" width="40" height="40"/>
      <rect class="slot single" x="1090" y="0" width="40" height="40"/>
    </g>
  </g>
</svg>
