<?xml version="1.0" encoding="UTF-8"?>
<svg version="1.1" viewBox="0 0 1405 590" xmlns="http://www.w3.org/2000/svg">
  <g transform="translate(0,-490)" fill="#fff" stroke="#000">
    <g>
      <rect x="0" y="1015" width="65" height="65"/>
      <rect x="75" y="1015" width="65" height="65"/>
      <rect x="150" y="1015" width="65" height="65"/>
      <rect x="225" y="1015" width="65" height="65"/>
      <rect x="300" y="1015" width="65" height="65"/>
      <rect x="375" y="1015" width="65" height="65"/>
      <rect x="450" y="1015" width="65" height="65"/>
      <rect x="525" y="1015" width="65" height="65"/>
      <rect x="600" y="1015" width="65" height="65"/>
      <rect x="0" y="940" width="65" height="65"/>
      <rect x="75" y="940" width="65" height="65"/>
      <rect x="150" y="940" width="65" height="65"/>
      <rect x="225" y="940" width="65" height="65"/>
      <rect x="300" y="940" width="65" height="65"/>
      <rect x="375" y="940" width="65" height="65"/>
      <rect x="450" y="940" width="65" height="65"/>
      <rect x="525" y="940" width="65" height="65"/>
      <rect x="600" y="940" width="65" height="65"/>
      <rect x="0" y="865" width="65" height="65"/>
      <rect x="75" y="865" width="65" height="65"/>
      <rect x="150" y="865" width="65" height="65"/>
      <rect x="225" y="865" width="65" height="65"/>
      <rect x="300" y="865" width="65" height="65"/>
      <rect x="375" y="865" width="65" height="65"/>
      <rect x="450" y="865" width="65" height="65"/>
      <rect x="525" y="865" width="65" height="65"/>
      <rect x="600" y="865" width="65" height="65"/>
      <rect x="0" y="790" width="65" height="65"/>
      <rect x="75" y="790" width="65" height="65"/>
      <rect x="150" y="790" width="65" height="65"/>
      <rect x="225" y="790" width="65" height="65"/>
      <rect x="300" y="790" width="65" height="65"/>
      <rect x="375" y="790" width="65" height="65"/>
      <rect x="450" y="790" width="65" height="65"/>
      <rect x="525" y="790" width="65" height="65"/>
      <rect x="600" y="790" width="65" height="65"/>
      <rect x="0" y="715" width="65" height="65"/>
      <rect x="75" y="715" width="65" height="65"/>
      <rect x="150" y="715" width="65" height="65"/>
      <rect x="225" y="715" width="65" height="65"/>
      <rect x="300" y="715" width="65" height="65"/>
      <rect x="375" y="715" width="65" height="65"/>
      <rect x="450" y="715" width="65" height="65"/>
      <rect x="525" y="715" width="65" height="65"/>
      <rect x="600" y="715" width="65" height="65"/>
      <rect x="0" y="640" width="65" height="65"/>
      <rect x="75" y="640" width="65" height="65"/>
      <rect x="150" y="640" width="65" height="65"/>
      <rect x="225" y="640" width="65" height="65"/>
      <rect x="300" y="640" width="65" height="65"/>
      <rect x="375" y="640" width="65" height="65"/>
      <rect x="450" y="640" width="65" height="65"/>
      <rect x="525" y="640" width="65" height="65"/>
      <rect x="600" y="640" width="65" height="65"/>
      <rect x="0" y="565" width="65" height="65"/>
      <rect x="75" y="565" width="65" height="65"/>
      <rect x="150" y="565" width="65" height="65"/>
      <rect x="225" y="565" width="65" height="65"/>
      <rect x="300" y="565" width="65" height="65"/>
      <rect x="375" y="565" width="65" height="65"/>
      <rect x="450" y="565" width="65" height="65"/>
      <rect x="525" y="565" width="65" height="65"/>
      <rect x="600" y="565" width="65" height="65"/>
      <rect x="0" y="490" width="65" height="65"/>
      <rect x="75" y="490" width="65" height="65"/>
      <rect x="150" y="490" width="65" height="65"/>
      <rect x="225" y="490" width="65" height="65"/>
      <rect x="300" y="490" width="65" height="65"/>
      <rect x="375" y="490" width="65" height="65"/>
      <rect x="450" y="490" width="65" height="65"/>
      <rect x="525" y="490" width="65" height="65"/>
      <rect x="600" y="490" width="65" height="65"/>
    </g>
    <g>
      <rect x="745" y="1015" width="65" height="65"/>
      <rect x="820" y="1015" width="65" height="65"/>
      <rect x="895" y="1015" width="65" height="65"/>
      <rect x="970" y="1015" width="65" height="65"/>
      <rect x="1045" y="1015" width="65" height="65"/>
      <rect x="1120" y="1015" width="65" height="65"/>
      <rect x="745" y="940" width="65" height="65"/>
      <rect x="820" y="940" width="65" height="65"/>
      <rect x="895" y="940" width="65" height="65"/>
      <rect x="970" y="940" width="65" height="65"/>
      <rect x="1045" y="940" width="65" height="65"/>
      <rect x="1120" y="940" width="65" height="65"/>
      <rect x="745" y="865" width="65" height="65"/>
      <rect x="820" y="865" width="65" height="65"/>
      <rect x="895" y="865" width="65" height="65"/>
      <rect x="970" y="865" width="65" height="65"/>
      <rect x="1045" y="865" width="65" height="65"/>
      <rect x="1120" y="865" width="65" height="65"/>
      <rect x="745" y="790" width="65" height="65"/>
      <rect x="820" y="790" width="65" height="65"/>
      <rect x="895" y="790" width="65" height="65"/>
      <rect x="970" y="790" width="65" height="65"/>
      <rect x="1045" y="790" width="65" height="65"/>
      <rect x="1120" y="790" width="65" height="65"/>
      <rect x="745" y="715" width="65" height="65"/>
      <rect x="820" y="715" width="65" height="65"/>
      <rect x="895" y="715" width="65" height="65"/>
      <rect x="970" y="715" width="65" height="65"/>
      <rect x="1045" y="715" width="65" height="65"/>
      <rect x="1120" y="715" width="65" height="65"/>
      <rect x="745" y="640" width="65" height="65"/>
      <rect x="820" y="640" width="65" height="65"/>
      <rect x="895" y="640" width="65" height="65"/>
      <rect x="970" y="640" width="65" height="65"/>
      <rect x="1045" y="640" width="65" height="65"/>
      <rect x="1120" y="640" width="65" height="65"/>
      <rect x="745" y="565" width="65" height="65"/>
      <rect x="820" y="565" width="65" height="65"/>
      <rect x="895" y="565" width="65" height="65"/>
      <rect x="970" y="565" width="65" height="65"/>
      <rect x="1045" y="565" width="65" height="65"/>
      <rect x="1120" y="565" width="65" height="65"/>
      <rect x="745" y="490" width="65" height="65"/>
      <rect x="820" y="490" width="65" height="65"/>
      <rect x="895" y="490" width="65" height="65"/>
      <rect x="970" y="490" width="65" height="65"/>
      <rect x="1045" y="490" width="65" height="65"/>
      <rect x="1120" y="490" width="65" height="65"/>
    </g>
    <g>
      <rect x="1265" y="1015" width="65" height="65"/>
      <rect x="1340" y="1015" width="65" height="65"/>
      <rect x="1265" y="940" width="65" height="65"/>
      <rect x="1340" y="940" width="65" height="65"/>
      <rect x="1265" y="865" width="65" height="65"/>
      <rect x="1340" y="865" width="65" height="65"/>
      <rect x="1265" y="790" width="65" height="65"/>
      <rect x="1340" y="790" width="65" height="65"/>
      <rect x="1265" y="715" width="65" height="65"/>
      <rect x="1340" y="715" width="65" height="65"/>
      <rect x="1265" y="640" width="65" height="65"/>
      <rect x="1340" y="640" width="65" height="65"/>
      <rect x="1265" y="565" width="65" height="65"/>
      <rect x="1340" y="565" width="65" height="65"/>
      <rect x="1265" y="490" width="65" height="65"/>
      <rect x="1340" y="490" width="65" height="65"/>
    </g>
  </g>
</svg>
