<svg
  height="1080"
  version="1.1"
  viewBox="0 0 1920 1080"
  width="1920"
  xmlns="http://www.w3.org/2000/svg"
>
  <style>
    .map path {
      fill: none;
      stroke-width: 1px;
      stroke: #000;
    }
    .map text {
      font-family: Monaco;
      font-size: 10px;
      text-align: center;
      text-anchor: middle;
    }
  </style>
  <g>
    <path d="m450 300v-10h140v10z" />
    <path d="m450 790v-10h140v10z" />
    <path d="m460 300h-10v480h10z" />
    <path d="m590 300h-10v480h10z" />
    <path d="m630 300v-10h820v10z" />
    <path d="m630 300v480h10v-480z" />
    <path d="m1440 300v480h10v-480z" />
    <path d="m630 790v-10h820v10z" />
  </g>
  <g>
    <path d="m460 780v-60h60v60z" />
    <text x="489" y="753">4303</text>
    <path d="m520 780v-60h60v60z" />
    <text x="549" y="753">4304</text>
    <path d="m460 720v-60h60v60z" />
    <text x="489" y="693">4305</text>
    <path d="m520 720v-60h60v60z" />
    <text x="549" y="693">4306</text>
    <path d="m460 660v-60h60v60z" />
    <text x="489" y="633">4307</text>
    <path d="m520 660v-60h60v60z" />
    <text x="549" y="633">4308</text>
    <path d="m460 600v-60h60v60z" />
    <text x="489" y="573">4309</text>
    <path d="m520 600v-60h60v60z" />
    <text x="549" y="573">4310</text>
    <path d="m460 540v-60h60v60z" />
    <text x="489" y="513">4311</text>
    <path d="m520 540v-60h60v60z" />
    <text x="549" y="513">4312</text>
    <path d="m460 480v-60h60v60z" />
    <text x="489" y="453">4313</text>
    <path d="m520 480v-60h60v60z" />
    <text x="549" y="453">4314</text>
    <path d="m460 420v-60h60v60z" />
    <text x="489" y="393">4315</text>
    <path d="m520 420v-60h60v60z" />
    <text x="549" y="393">4316</text>
    <path d="m460 360v-60h60v60z" />
    <text x="489" y="333">4317</text>
    <path d="m520 360v-60h60v60z" />
    <text x="549" y="333">4318</text>
    <path d="m640 780v-60h60v60z" />
    <text x="669" y="753">4319</text>
    <path d="m700 780v-60h60v60z" />
    <text x="729" y="753">4320</text>
    <path d="m640 720v-60h60v60z" />
    <text x="669" y="693">4321</text>
    <path d="m700 720v-60h60v60z" />
    <text x="729" y="693">4322</text>
    <path d="m640 660v-60h60v60z" />
    <text x="669" y="633">4323</text>
    <path d="m700 660v-60h60v60z" />
    <text x="729" y="633">4324</text>
    <path d="m640 600v-60h60v60z" />
    <text x="669" y="573">4325</text>
    <path d="m700 600v-60h60v60z" />
    <text x="729" y="573">4326</text>
    <path d="m640 540v-60h60v60z" />
    <text x="669" y="513">4327</text>
    <path d="m700 540v-60h60v60z" />
    <text x="729" y="513">4328</text>
    <path d="m640 480v-60h60v60z" />
    <text x="669" y="453">4329</text>
    <path d="m700 480v-60h60v60z" />
    <text x="729" y="453">4330</text>
    <path d="m640 420v-60h60v60z" />
    <text x="669" y="393">4331</text>
    <path d="m700 420v-60h60v60z" />
    <text x="729" y="393">4332</text>
    <path d="m640 360v-60h60v60z" />
    <text x="669" y="333">4333</text>
    <path d="m700 360v-60h60v60z" />
    <text x="729" y="333">4334</text>
    <path d="m780 780v-40h40v40z" />
    <text x="800" y="763">4335</text>
    <path d="m820 780v-40h40v40z" />
    <text x="840" y="763">4336</text>
    <path d="m860 780v-40h40v40z" />
    <text x="880" y="763">4337</text>
    <path d="m900 780v-40h40v40z" />
    <text x="920" y="763">4338</text>
    <path d="m940 780v-40h40v40z" />
    <text x="960" y="763">4339</text>
    <path d="m980 780v-40h40v40z" />
    <text x="1000" y="763">4340</text>
    <path d="m1020 780v-40h40v40z" />
    <text x="1040" y="763">4341</text>
    <path d="m1060 780v-40h40v40z" />
    <text x="1080" y="763">4342</text>
    <path d="m1100 780v-40h40v40z" />
    <text x="1120" y="763">4343</text>
    <path d="m1140 780v-40h40v40z" />
    <text x="1160" y="763">4344</text>
    <path d="m780 740v-40h40v40z" />
    <text x="800" y="723">4345</text>
    <path d="m820 740v-40h40v40z" />
    <text x="840" y="723">4346</text>
    <path d="m860 740v-40h40v40z" />
    <text x="880" y="723">4347</text>
    <path d="m900 740v-40h40v40z" />
    <text x="920" y="723">4348</text>
    <path d="m940 740v-40h40v40z" />
    <text x="960" y="723">4349</text>
    <path d="m980 740v-40h40v40z" />
    <text x="1000" y="723">4350</text>
    <path d="m1020 740v-40h40v40z" />
    <text x="1040" y="723">4351</text>
    <path d="m1060 740v-40h40v40z" />
    <text x="1080" y="723">4352</text>
    <path d="m1100 740v-40h40v40z" />
    <text x="1120" y="723">4353</text>
    <path d="m1140 740v-40h40v40z" />
    <text x="1160" y="723">4354</text>
    <path d="m780 700v-40h40v40z" />
    <text x="800" y="683">4355</text>
    <path d="m820 700v-40h40v40z" />
    <text x="840" y="683">4356</text>
    <path d="m860 700v-40h40v40z" />
    <text x="880" y="683">4357</text>
    <path d="m900 700v-40h40v40z" />
    <text x="920" y="683">4358</text>
    <path d="m940 700v-40h40v40z" />
    <text x="960" y="683">4359</text>
    <path d="m980 700v-40h40v40z" />
    <text x="1000" y="683">4360</text>
    <path d="m1020 700v-40h40v40z" />
    <text x="1040" y="683">4361</text>
    <path d="m1060 700v-40h40v40z" />
    <text x="1080" y="683">4362</text>
    <path d="m1100 700v-40h40v40z" />
    <text x="1120" y="683">4363</text>
    <path d="m1140 700v-40h40v40z" />
    <text x="1160" y="683">4364</text>
    <path d="m780 660v-40h40v40z" />
    <text x="800" y="643">4365</text>
    <path d="m820 660v-40h40v40z" />
    <text x="840" y="643">4366</text>
    <path d="m860 660v-40h40v40z" />
    <text x="880" y="643">4367</text>
    <path d="m900 660v-40h40v40z" />
    <text x="920" y="643">4368</text>
    <path d="m940 660v-40h40v40z" />
    <text x="960" y="643">4369</text>
    <path d="m980 660v-40h40v40z" />
    <text x="1000" y="643">4370</text>
    <path d="m1020 660v-40h40v40z" />
    <text x="1040" y="643">4371</text>
    <path d="m1060 660v-40h40v40z" />
    <text x="1080" y="643">4372</text>
    <path d="m1100 660v-40h40v40z" />
    <text x="1120" y="643">4373</text>
    <path d="m1140 660v-40h40v40z" />
    <text x="1160" y="643">4374</text>
    <path d="m780 620v-40h40v40z" />
    <text x="800" y="603">4375</text>
    <path d="m820 620v-40h40v40z" />
    <text x="840" y="603">4376</text>
    <path d="m860 620v-40h40v40z" />
    <text x="880" y="603">4377</text>
    <path d="m900 620v-40h40v40z" />
    <text x="920" y="603">4378</text>
    <path d="m940 620v-40h40v40z" />
    <text x="960" y="603">4379</text>
    <path d="m980 620v-40h40v40z" />
    <text x="1000" y="603">4380</text>
    <path d="m1020 620v-40h40v40z" />
    <text x="1040" y="603">4381</text>
    <path d="m1060 620v-40h40v40z" />
    <text x="1080" y="603">4382</text>
    <path d="m1100 620v-40h40v40z" />
    <text x="1120" y="603">4383</text>
    <path d="m1140 620v-40h40v40z" />
    <text x="1160" y="603">4384</text>
    <path d="m780 580v-40h40v40z" />
    <text x="800" y="563">4385</text>
    <path d="m820 580v-40h40v40z" />
    <text x="840" y="563">4386</text>
    <path d="m860 580v-40h40v40z" />
    <text x="880" y="563">4387</text>
    <path d="m900 580v-40h40v40z" />
    <text x="920" y="563">4388</text>
    <path d="m940 580v-40h40v40z" />
    <text x="960" y="563">4389</text>
    <path d="m980 580v-40h40v40z" />
    <text x="1000" y="563">4390</text>
    <path d="m1020 580v-40h40v40z" />
    <text x="1040" y="563">4391</text>
    <path d="m1060 580v-40h40v40z" />
    <text x="1080" y="563">4392</text>
    <path d="m1100 580v-40h40v40z" />
    <text x="1120" y="563">4393</text>
    <path d="m1140 580v-40h40v40z" />
    <text x="1160" y="563">4394</text>
    <path d="m780 540v-40h40v40z" />
    <text x="800" y="523">4395</text>
    <path d="m820 540v-40h40v40z" />
    <text x="840" y="523">4396</text>
    <path d="m860 540v-40h40v40z" />
    <text x="880" y="523">4397</text>
    <path d="m900 540v-40h40v40z" />
    <text x="920" y="523">4398</text>
    <path d="m940 540v-40h40v40z" />
    <text x="960" y="523">4399</text>
    <path d="m980 540v-40h40v40z" />
    <text x="1000" y="523">4400</text>
    <path d="m1020 540v-40h40v40z" />
    <text x="1040" y="523">4401</text>
    <path d="m1060 540v-40h40v40z" />
    <text x="1080" y="523">4402</text>
    <path d="m1100 540v-40h40v40z" />
    <text x="1120" y="523">4403</text>
    <path d="m1140 540v-40h40v40z" />
    <text x="1160" y="523">4404</text>
    <path d="m780 500v-40h40v40z" />
    <text x="800" y="483">4405</text>
    <path d="m820 500v-40h40v40z" />
    <text x="840" y="483">4406</text>
    <path d="m860 500v-40h40v40z" />
    <text x="880" y="483">4407</text>
    <path d="m900 500v-40h40v40z" />
    <text x="920" y="483">4408</text>
    <path d="m940 500v-40h40v40z" />
    <text x="960" y="483">4409</text>
    <path d="m980 500v-40h40v40z" />
    <text x="1000" y="483">4410</text>
    <path d="m1020 500v-40h40v40z" />
    <text x="1040" y="483">4411</text>
    <path d="m1060 500v-40h40v40z" />
    <text x="1080" y="483">4412</text>
    <path d="m1100 500v-40h40v40z" />
    <text x="1120" y="483">4413</text>
    <path d="m1140 500v-40h40v40z" />
    <text x="1160" y="483">4414</text>
    <path d="m780 460v-40h40v40z" />
    <text x="800" y="443">4415</text>
    <path d="m820 460v-40h40v40z" />
    <text x="840" y="443">4416</text>
    <path d="m860 460v-40h40v40z" />
    <text x="880" y="443">4417</text>
    <path d="m900 460v-40h40v40z" />
    <text x="920" y="443">4418</text>
    <path d="m940 460v-40h40v40z" />
    <text x="960" y="443">4419</text>
    <path d="m980 460v-40h40v40z" />
    <text x="1000" y="443">4420</text>
    <path d="m1020 460v-40h40v40z" />
    <text x="1040" y="443">4421</text>
    <path d="m1060 460v-40h40v40z" />
    <text x="1080" y="443">4422</text>
    <path d="m1100 460v-40h40v40z" />
    <text x="1120" y="443">4423</text>
    <path d="m1140 460v-40h40v40z" />
    <text x="1160" y="443">4424</text>
    <path d="m780 420v-40h40v40z" />
    <text x="800" y="403">4425</text>
    <path d="m820 420v-40h40v40z" />
    <text x="840" y="403">4426</text>
    <path d="m860 420v-40h40v40z" />
    <text x="880" y="403">4427</text>
    <path d="m900 420v-40h40v40z" />
    <text x="920" y="403">4428</text>
    <path d="m940 420v-40h40v40z" />
    <text x="960" y="403">4429</text>
    <path d="m980 420v-40h40v40z" />
    <text x="1000" y="403">4430</text>
    <path d="m1020 420v-40h40v40z" />
    <text x="1040" y="403">4431</text>
    <path d="m1060 420v-40h40v40z" />
    <text x="1080" y="403">4432</text>
    <path d="m1100 420v-40h40v40z" />
    <text x="1120" y="403">4433</text>
    <path d="m1140 420v-40h40v40z" />
    <text x="1160" y="403">4434</text>
    <path d="m780 380v-40h40v40z" />
    <text x="800" y="363">4435</text>
    <path d="m820 380v-40h40v40z" />
    <text x="840" y="363">4436</text>
    <path d="m860 380v-40h40v40z" />
    <text x="880" y="363">4437</text>
    <path d="m900 380v-40h40v40z" />
    <text x="920" y="363">4438</text>
    <path d="m940 380v-40h40v40z" />
    <text x="960" y="363">4439</text>
    <path d="m980 380v-40h40v40z" />
    <text x="1000" y="363">4440</text>
    <path d="m1020 380v-40h40v40z" />
    <text x="1040" y="363">4441</text>
    <path d="m1060 380v-40h40v40z" />
    <text x="1080" y="363">4442</text>
    <path d="m1100 380v-40h40v40z" />
    <text x="1120" y="363">4443</text>
    <path d="m1140 380v-40h40v40z" />
    <text x="1160" y="363">4444</text>
    <path d="m780 340v-40h40v40z" />
    <text x="800" y="323">4445</text>
    <path d="m820 340v-40h40v40z" />
    <text x="840" y="323">4446</text>
    <path d="m860 340v-40h40v40z" />
    <text x="880" y="323">4447</text>
    <path d="m900 340v-40h40v40z" />
    <text x="920" y="323">4448</text>
    <path d="m940 340v-40h40v40z" />
    <text x="960" y="323">4449</text>
    <path d="m980 340v-40h40v40z" />
    <text x="1000" y="323">4450</text>
    <path d="m1020 340v-40h40v40z" />
    <text x="1040" y="323">4451</text>
    <path d="m1060 340v-40h40v40z" />
    <text x="1080" y="323">4452</text>
    <path d="m1100 340v-40h40v40z" />
    <text x="1120" y="323">4453</text>
    <path d="m1140 340v-40h40v40z" />
    <text x="1160" y="323">4454</text>
    <path d="m1200 780v-60h60v60z" />
    <text x="1229" y="753">4455</text>
    <path d="m1260 780v-60h60v60z" />
    <text x="1289" y="753">4456</text>
    <path d="m1320 780v-60h60v60z" />
    <text x="1349" y="753">4457</text>
    <path d="m1380 780v-60h60v60z" />
    <text x="1409" y="753">4458</text>
    <path d="m1200 720v-60h60v60z" />
    <text x="1229" y="693">4459</text>
    <path d="m1260 720v-60h60v60z" />
    <text x="1289" y="693">4460</text>
    <path d="m1320 720v-60h60v60z" />
    <text x="1349" y="693">4461</text>
    <path d="m1380 720v-60h60v60z" />
    <text x="1409" y="693">4462</text>
    <path d="m1200 660v-60h60v60z" />
    <text x="1229" y="633">4463</text>
    <path d="m1260 660v-60h60v60z" />
    <text x="1289" y="633">4464</text>
    <path d="m1320 660v-60h60v60z" />
    <text x="1349" y="633">4465</text>
    <path d="m1380 660v-60h60v60z" />
    <text x="1409" y="633">4466</text>
    <path d="m1200 600v-60h60v60z" />
    <text x="1229" y="573">4467</text>
    <path d="m1260 600v-60h60v60z" />
    <text x="1289" y="573">4468</text>
    <path d="m1320 600v-60h60v60z" />
    <text x="1349" y="573">4469</text>
    <path d="m1380 600v-60h60v60z" />
    <text x="1409" y="573">4470</text>
    <path d="m1200 540v-60h60v60z" />
    <text x="1229" y="513">4471</text>
    <path d="m1260 540v-60h60v60z" />
    <text x="1289" y="513">4472</text>
    <path d="m1320 540v-60h60v60z" />
    <text x="1349" y="513">4473</text>
    <path d="m1380 540v-60h60v60z" />
    <text x="1409" y="513">4474</text>
    <path d="m1200 480v-60h60v60z" />
    <text x="1229" y="453">4475</text>
    <path d="m1260 480v-60h60v60z" />
    <text x="1289" y="453">4476</text>
    <path d="m1320 480v-60h60v60z" />
    <text x="1349" y="453">4477</text>
    <path d="m1380 480v-60h60v60z" />
    <text x="1409" y="453">4478</text>
    <path d="m1200 420v-60h60v60z" />
    <text x="1229" y="393">4479</text>
    <path d="m1260 420v-60h60v60z" />
    <text x="1289" y="393">4480</text>
    <path d="m1320 420v-60h60v60z" />
    <text x="1349" y="393">4481</text>
    <path d="m1380 420v-60h60v60z" />
    <text x="1409" y="393">4482</text>
    <path d="m1200 360v-60h60v60z" />
    <text x="1229" y="333">4483</text>
    <path d="m1260 360v-60h60v60z" />
    <text x="1289" y="333">4484</text>
    <path d="m1320 360v-60h60v60z" />
    <text x="1349" y="333">4485</text>
    <path d="m1380 360v-60h60v60z" />
    <text x="1409" y="333">4486</text>
  </g>
</svg>
